<?xml version="1.0" encoding="UTF-8"?>
<!DOCTYPE svg PUBLIC "-//W3C//DTD SVG 1.1//EN" "http://www.w3.org/Graphics/SVG/1.1/DTD/svg11.dtd">
<!-- Creator: CorelDRAW X8 -->
<svg xmlns="http://www.w3.org/2000/svg" xml:space="preserve" width="75.4031mm" height="58.2468mm" version="1.1" style="shape-rendering:geometricPrecision; text-rendering:geometricPrecision; image-rendering:optimizeQuality; fill-rule:evenodd; clip-rule:evenodd"
viewBox="0 0 5375 4152"
 xmlns:xlink="http://www.w3.org/1999/xlink">
 <defs>
  <style type="text/css">
   <![CDATA[
    .fil4 {fill:#FEFEFE}
    .fil3 {fill:#00C2B5}
    .fil2 {fill:#A6CF3E}
    .fil1 {fill:#848688;fill-rule:nonzero}
    .fil0 {fill:#00C2B5;fill-rule:nonzero}
   ]]>
  </style>
 </defs>
 <g id="Camada_x0020_1">
  <metadata id="CorelCorpID_0Corel-Layer"/>
  <g id="_2693048722448">
   <path class="fil0" d="M2 2904l82 2 7 1 -3 7c0,4 0,9 2,14 1,3 4,6 8,8l16 -1 10 6c4,2 6,6 7,11 4,-1 7,-3 10,-5 2,-3 4,-6 6,-10l3 -14 0 -10 1 -2 -1 -1 -31 3c0,-2 1,-4 2,-6l15 -3 33 0 46 122 2 13c-2,4 -4,7 -6,11l0 5 10 0c3,1 6,4 9,7l5 12 2 9 -26 -8c-1,1 -1,2 -3,4l-13 3c3,2 7,3 11,4l28 6c5,0 8,2 11,7l17 50 11 21 12 35 -6 0 -12 3 -4 4 8 0 15 2c2,2 6,5 9,8l7 26c2,3 4,6 7,9 3,3 6,5 9,8l4 3 57 -153 48 1 27 -7c3,-2 6,-4 9,-7l-11 4 -63 0 -3 -1 3 -14 10 -23c2,-3 4,-6 6,-10l7 -11 10 -39 5 -12c2,-3 5,-7 8,-10l10 -6c-1,-4 -2,-9 -3,-14l7 -26 12 -22c3,-2 7,-3 12,-4l155 2 -2 43 -5 -12c-1,-3 -4,-6 -7,-9 -3,2 -6,4 -9,6l-3 14 0 7 -25 -1 -13 -3c-4,-1 -8,-2 -13,-2 0,4 -1,9 -3,14 -4,-2 -8,-4 -11,-7 -4,-2 -7,-3 -12,-4 -4,-1 -8,-3 -10,-7 -1,-4 -3,-7 -6,-10l-12 0 0 6 1 4 -4 68 5 1c4,0 8,2 10,7l0 16 2 15 4 14 2 -5 -3 -31c2,-2 3,-6 4,-9l-7 -11 -6 -10 10 -6 16 -2 15 1 -1 7 5 11 -1 9 5 2 12 1 3 -1 13 -3c4,-2 8,-3 12,-5l24 -10 8 -1c0,2 -1,4 -3,5l-5 2 2 7 -6 7 2 6c-2,0 -4,1 -6,2l-28 5c-4,2 -7,5 -10,8l-1 7 1 2 3 2c4,-1 7,-2 11,-5l5 -13 27 7c4,0 8,3 10,6l0 596 -6 1 -80 -1c-1,-1 -2,-2 -2,-3l4 -23c-3,-3 -6,-5 -9,-6l-14 3 -22 12 -9 6 14 -2 14 -4 4 0c0,2 1,4 2,7 0,1 -1,1 -2,2 -3,1 -6,3 -9,6 -5,1 -10,2 -15,3l-25 1 -1 -107c1,-4 2,-8 4,-13l5 -28c2,-3 2,-7 3,-11l-4 -15c0,-4 -1,-8 -2,-12l-1 -16 2 -31 0 -14 4 -1 -3 -10 5 0 13 -3 3 -3 -2 -9 -5 -11 -4 -4 -1 28c-3,-1 -6,-2 -9,-4l0 -34c2,-3 3,-7 4,-11 0,-4 2,-7 4,-11 1,-3 1,-8 2,-12 0,-4 -1,-9 -2,-14 -4,-3 -5,-7 -5,-12l-2 -12 2 -3c1,-3 3,-7 6,-10l10 -2 -1 4 0 16c1,5 3,9 4,13l5 13c1,3 3,5 7,6l1 -33 2 -12c-2,-3 -5,-6 -8,-8l-2 -11c0,-1 0,-2 2,-3l14 2c4,2 7,6 8,11 1,3 3,6 6,9 1,0 2,-1 3,-2l-2 -7c-2,-4 -3,-7 -4,-11l2 -14c-1,-4 -2,-8 -5,-13l-7 -26 0 -9 -5 -1c-3,3 -4,7 -4,12l8 42 -13 2c-3,-3 -5,-6 -7,-11l-4 -13 -5 -11c-3,-3 -5,-7 -6,-11l1 -8 -6 0 -4 3 5 16 -7 0c-4,0 -8,-2 -12,-4l-18 -4 -11 1 -2 3c0,3 2,5 4,7l10 2 3 -1 11 -3 0 5c-2,3 -5,7 -8,10l-5 11 -4 13c0,4 -2,7 -6,8 -4,2 -7,4 -10,8 4,1 6,3 8,7l-8 26 -16 33c-2,3 -5,6 -8,10 -2,3 -6,6 -9,8l-10 5 -14 4 -14 3 -16 0 -2 7 33 -2c1,0 2,1 3,2 4,2 7,3 12,4l-1 -11 11 0 -3 8c-2,3 -4,7 -6,10l-48 1c2,4 6,5 11,5l34 0 -1 13c-2,3 -4,7 -6,11l-11 22c-2,-2 -4,-5 -5,-8 -2,-4 -5,-6 -10,-6l-4 1 5 23 1 15c-1,5 -2,9 -4,14 -3,1 -8,2 -12,3l-15 3c-3,1 -6,3 -8,6l15 -2 13 2 0 10 -56 -1 -3 -1 -5 -13c2,-3 4,-5 8,-7 -2,-3 -3,-5 -6,-7 -3,-2 -7,-3 -11,-5l-3 -14 -3 -8 3 -2 -3 -14c-4,-1 -8,-3 -11,-6l-5 -12c-1,-3 -3,-7 -5,-11 2,-2 5,-5 8,-6 -1,-4 -4,-8 -7,-11 -3,-2 -5,-5 -7,-8l-8 -11 -42 -107 11 -2 30 3 13 4 5 1 2 -1 -1 -6c-3,-2 -7,-3 -11,-4l-56 -12 -16 0c-4,3 -5,7 -5,12l2 131c0,4 2,8 4,13l3 13 -15 3 -49 1 -11 2 7 10c4,-1 8,-3 12,-5 4,0 8,2 12,4l22 11 -4 -2 2 -8c3,-3 7,-4 12,-4 4,1 8,3 11,7l2 9 -4 1 -4 2c0,3 1,5 3,8 3,2 5,6 5,11l0 17c-3,3 -5,6 -6,10 1,4 3,7 6,11l-1 126 -5 2 -9 8 -13 -1c-4,0 -8,3 -10,7l-10 3 -1 -5c-1,4 -2,8 -2,12l0 5 -119 -6 0 -22 2 -31 3 8 3 14c3,2 6,4 11,5l6 -11 4 -13 17 0 28 5c2,-2 4,-5 5,-8l2 -5 7 -1 2 3c0,4 2,7 6,10l16 -1 8 30c2,-2 3,-4 5,-6 2,-3 5,-5 8,-7 2,-4 4,-8 5,-13 -1,-4 -3,-8 -6,-11l-9 -8 -7 -2c1,-1 2,-2 4,-4l10 -6 3 -8 -14 -8 -12 4 -14 -2c-4,0 -7,1 -11,2 -1,0 -2,-1 -3,-2l5 -11c-1,-4 -3,-7 -5,-12 -2,-3 -5,-5 -9,-7l-11 -1 -16 5c-3,2 -7,4 -10,8l-26 7 -7 -1 10 -5c0,-2 -1,-4 -3,-6 2,-3 5,-6 8,-9 -1,-2 -1,-5 -3,-7 2,-1 4,-1 6,-2l28 -6 11 -5 2 -3 -2 -8c-2,-1 -5,-1 -8,-1l-2 1 -3 0 0 1c-2,3 -3,7 -4,12l-5 2 -23 -5 -12 0 0 -590c0,-4 1,-9 2,-14zm160 8c0,4 1,7 4,10 -1,-3 -2,-7 -4,-10zm-146 1c-2,4 -3,8 -4,13l5 11 -2 3 1 10c2,1 5,3 9,4 2,-3 4,-7 5,-11l-1 -13 -3 -13c-3,-2 -7,-3 -10,-4zm96 6c3,1 5,2 7,4l-5 3 -2 -7zm16 14l6 0c-1,2 -3,4 -6,5l0 -5zm-62 8l-4 10 11 1c3,-2 4,-6 4,-10l-11 -1zm109 3l-1 6 2 0 0 -1 -1 -5zm394 2c0,2 1,3 2,4 2,-1 4,-1 6,-3l-8 -1zm-441 11l-4 2 6 11 6 4 12 -1 -10 -4c-3,-3 -7,-7 -10,-12zm-50 4l-3 5 6 -2 -3 -3zm-54 1l-5 3 2 9 5 0c2,-3 3,-6 4,-10l-6 -2zm86 14c2,3 4,6 9,8 1,3 4,5 7,7 -1,-3 -3,-7 -6,-10 -2,-4 -5,-5 -10,-5zm465 0l12 0 -1 5 -10 1 -1 -6zm-114 5l1 6 6 -1c-1,-3 -4,-5 -7,-5zm-319 1c1,2 3,3 6,4 -2,-2 -4,-3 -6,-4zm409 1l10 0 1 10c-1,2 -1,2 -2,3l-9 2 0 -15zm-459 2c1,4 2,8 4,12l3 7 -5 2c-3,2 -5,5 -6,9l20 9 48 -1c2,-3 3,-5 4,-8l-17 0 -23 -3 -3 2c-2,2 -5,3 -9,4l0 -5 1 -15c0,-4 -1,-8 -3,-12l-14 -1zm416 3l5 0 -1 9c-2,-2 -4,-5 -4,-9zm67 0c6,0 11,1 17,3 3,2 5,5 6,10l-4 0 -16 4c-1,-5 -2,-11 -3,-17zm-501 8c0,2 1,4 3,6 0,-3 -1,-4 -3,-6zm95 9l1 3 1 -3 -2 0zm358 4l-2 7 6 1 2 -1 2 0c1,0 1,-1 2,-2l-1 -5 -9 0zm35 4l8 0 0 6c-1,4 -2,7 -4,10 -2,-2 -4,-4 -6,-6 0,-4 0,-7 2,-10zm-92 4l-3 11 5 -1 3 -10 -5 0zm-288 16l-3 8 8 1 2 -1c-2,-3 -4,-6 -7,-8zm19 0c1,5 4,8 9,9l0 -9 -9 0zm325 3c2,2 4,3 7,4 -2,-2 -4,-3 -7,-4zm-423 1l1 7 9 -1 1 -6 -11 0zm451 4l-16 11c-3,1 -5,3 -9,5l-2 6 4 2 10 -3 8 -4c3,-2 5,-4 8,-6l0 -9c-1,-1 -1,-1 -3,-2zm-63 3c1,3 3,5 6,6 -1,-3 -3,-5 -6,-6zm-310 10l-1 7 8 -1c-1,-3 -3,-5 -7,-6zm290 1l1 27c0,2 1,2 2,3l0 -17c0,-4 -1,-9 -3,-13zm23 2l-2 8 3 2 2 -8c0,-1 -1,-2 -3,-2zm117 10c-4,2 -7,4 -11,8l-7 9 -16 -1c1,4 3,8 5,11 4,0 7,-1 11,-2l9 -7c3,-2 6,-5 9,-8l3 -8c-1,-1 -2,-1 -3,-2zm-438 5l-1 7 4 2 3 1 9 -1c-1,-3 -2,-5 -4,-7l-11 -2zm-41 8l-1 6 12 -1c-3,-2 -7,-4 -11,-5zm408 0l-3 6 4 0 2 -4 -3 -2zm-378 4l1 12 4 -3 2 -3 -2 -6 -5 0zm332 10c1,5 3,7 7,8 0,-4 -2,-7 -7,-8zm-296 4l-15 2c-3,0 -6,1 -9,4 4,0 8,1 13,1l14 1 10 5c3,-1 6,-3 9,-6 -2,-3 -5,-5 -8,-6l-14 -1zm273 2c-1,5 -1,10 -1,16 1,5 3,9 5,13l1 -14 -1 -3c0,-4 -2,-8 -4,-12zm44 0l-2 13 2 8 5 -3c1,-3 2,-7 2,-11 -1,-3 -4,-6 -7,-7zm-446 1l-1 8 8 -2 2 -4 -1 -2 -8 0zm50 1l-3 3 6 2c0,-2 -1,-4 -3,-5zm-33 4l2 6 2 1 6 -1c-2,-4 -5,-6 -10,-6zm53 8l4 11 7 -3c-3,-5 -6,-7 -11,-8zm472 0l1 7 4 -3c-1,-1 -3,-3 -5,-4zm-405 2c-1,4 -2,9 -3,14l1 5 9 -1 -1 -7c-2,-4 -3,-7 -6,-11zm-132 9c4,2 8,4 14,4 -5,-2 -9,-4 -14,-4zm427 7c2,5 4,9 8,13l4 3c3,-1 7,-2 10,-4l2 -7 -6 -4 -18 -1zm-39 4c1,3 3,5 7,5 -1,-3 -3,-5 -7,-5zm-403 2c2,2 3,3 6,3 1,0 1,-1 2,-3l-8 0zm143 5l-14 8c0,4 0,9 2,14 -3,5 -4,10 -4,17l5 16c3,-3 5,-7 6,-11 1,-5 2,-12 2,-19 3,-4 6,-8 7,-13l2 -12 -6 0zm276 0l-1 15 3 28c3,2 6,4 9,4l2 -13 0 -16 -3 -12c-3,-3 -6,-4 -10,-6zm-404 3l-5 2 1 6 9 -1c2,-2 4,-4 7,-7l-12 0zm501 2c-1,1 -2,3 -3,5 3,0 5,1 9,1l1 -6 -7 0zm-132 1l-17 4c-4,1 -7,3 -8,7l17 -3c3,-2 6,-5 8,-8zm22 7l-3 14c0,4 1,8 4,11 1,-4 2,-9 3,-14 0,-4 -2,-8 -4,-11zm-315 1l-7 1 0 14c1,5 2,11 5,17l6 -1 -1 -13c0,-6 -1,-12 -3,-18zm428 3l1 13 11 -1c-1,-6 -5,-10 -12,-12zm-173 1c-4,1 -7,3 -11,5l-11 6c-3,1 -6,3 -10,6l-5 5c0,1 1,2 3,2l31 -17c2,-2 3,-4 3,-7zm-340 5l-2 10 2 3 14 2c0,-3 -1,-7 -3,-11 -3,-1 -7,-3 -11,-4zm23 1l-2 9c1,1 1,2 3,3l12 -2c1,-1 2,-2 2,-3 0,-2 -1,-4 -3,-6l-12 -1zm428 0l6 10c2,2 5,4 9,6l-3 -14 -12 -2zm-392 13l1 7 4 -1c-1,-3 -3,-5 -5,-6zm275 1l-2 3 2 9 4 2 2 -1 2 -13 -8 0zm-322 6l-1 5 3 0c0,-2 -1,-3 -2,-5zm165 0l-17 4c-3,2 -5,4 -7,7l24 -2 4 -8 -4 -1zm202 2c-2,2 -3,5 -4,9l9 0c2,-2 3,-3 3,-5 -2,-2 -5,-3 -8,-4zm-271 3l0 8 5 -1c-1,-3 -2,-5 -5,-7zm412 6c-3,3 -5,6 -6,11l3 16c0,4 2,8 6,11 4,2 8,3 13,4l6 -2 -12 -34c-3,-3 -6,-5 -10,-6zm-431 1l-3 13c2,2 5,2 7,2l5 -11c-3,-2 -6,-4 -9,-4zm249 7c-1,4 -3,8 -4,12 3,3 6,4 11,6 1,-4 2,-8 3,-13 -3,-2 -6,-4 -10,-5zm-325 6l-1 3 1 10 8 22c0,2 2,5 5,7l1 -13c0,-4 -1,-8 -2,-12 -3,-3 -5,-5 -7,-9l0 -8 -5 0zm96 0l2 13c1,3 3,6 5,9 3,-1 6,-3 8,-6 3,-2 7,-3 11,-3l13 2c3,-1 7,-2 11,-3l23 4 12 -2c-2,-2 -5,-3 -9,-4l-35 -8 -41 -2zm189 1l3 3 9 -2 -12 -1zm190 4l0 17 1 3 0 10c3,-1 6,-1 10,-3l1 -14 -1 -3c-1,-6 -4,-9 -11,-10zm-170 7c1,2 3,5 6,7 -1,-3 -3,-5 -6,-7zm-242 8c0,1 1,3 3,4 0,-2 -1,-3 -3,-4zm212 1c-1,4 -2,8 -3,13 1,1 2,2 3,3l8 -2c1,-4 3,-7 4,-11 -4,-1 -8,-3 -12,-3zm-232 6c0,3 1,5 3,8 -1,-3 -1,-5 -3,-8zm291 3l-22 8 -4 10c0,3 1,4 3,5l8 -7c2,-2 5,-4 8,-5l12 -3c-1,-3 -3,-6 -5,-8zm180 8l1 15c3,3 7,5 12,5l-3 -15c-3,-2 -6,-4 -10,-5zm-227 6c0,2 1,4 3,5 0,-2 -1,-4 -3,-5zm-276 6l0 11 3 -3 2 -8 -5 0zm-63 1l0 11 6 -1 -1 -10 -5 0zm305 11c1,2 1,4 2,6l7 -2 -9 -4zm-218 6l3 8 7 -1 0 -7 -10 0zm31 1l0 5 4 -3 -4 -2zm-55 4c0,2 2,4 4,5 -1,-2 -2,-4 -4,-5zm511 4c-1,1 -2,3 -3,4 1,3 2,6 4,8l2 -10c0,-1 -1,-1 -3,-2zm-576 4l3 15c3,2 6,4 11,5 -1,-5 -1,-10 -3,-15l-11 -5zm225 3c0,2 1,3 3,5 0,-2 -1,-4 -3,-5zm288 1c-2,1 -3,3 -3,5l5 3 2 -7 -4 -1zm-394 2c1,3 2,5 4,8l4 -2 1 -6 -9 0zm75 1l0 5c2,-1 3,-3 5,-5l-5 0zm-127 9l3 14 2 5 6 -2 2 -10 -3 -2c-3,-2 -6,-4 -10,-5zm447 1c-2,3 -4,7 -4,11l5 0c1,-4 2,-7 3,-11l-4 0zm-162 1c1,3 2,6 4,10 3,1 6,2 9,2l1 -9 -2 -2 -12 -1zm-307 6l-5 5 -1 8 1 2c0,5 3,10 8,13l5 0 -2 -28 -6 0zm83 4c1,2 3,4 5,6l1 -5 -6 -1zm-128 3l3 14 9 25 4 3 7 -2c1,-1 2,-2 2,-4l-3 -25 0 -9 -6 -1 -16 -1zm228 0c-3,1 -5,2 -7,5l0 5 7 -1c3,-1 6,-3 9,-5 -3,-2 -6,-3 -9,-4zm85 4c-2,3 -3,7 -4,11 2,4 2,8 3,12 3,1 7,2 11,3 2,-3 4,-5 5,-9l11 -5c-1,-2 -2,-4 -4,-5l-10 -5c-4,-1 -8,-2 -12,-2zm201 0c0,4 3,8 8,9l0 13 5 -1 -2 -14c-3,-3 -7,-6 -11,-7zm-23 6c0,4 1,9 2,14l0 -11c0,-1 -1,-2 -2,-3zm35 36c1,2 2,3 3,5 0,-2 -1,-4 -3,-5zm-220 8c-3,0 -5,1 -7,3 3,0 6,-1 7,-3zm-236 1c2,2 5,3 8,3l-8 -3zm455 3c1,4 3,7 5,12 3,1 6,2 10,3l1 -10 -2 -3 -14 -2zm-18 1l-7 1 1 10 2 4 10 -1 6 -11c-4,-1 -8,-2 -12,-3zm-491 8c0,7 3,11 10,12l1 -12 -11 0zm233 0l2 6 3 1 31 -3c-5,-2 -9,-3 -14,-4l-22 0zm75 14l-1 9 -1 4 3 0 2 -10c0,-1 -1,-3 -3,-3zm-301 4l0 7 9 -3 -9 -4zm504 1l-10 4c2,2 4,3 7,4l12 -3c-2,-2 -5,-4 -9,-5zm-289 5c0,2 1,3 3,3l-3 -3zm245 3c0,5 0,9 2,13l6 -2c2,-3 3,-6 3,-10l-11 -1zm56 4c2,1 4,1 6,2l-6 -2zm-23 10l0 5 15 2c-3,-3 -9,-6 -15,-7zm-32 6l-5 11 5 0 3 -9c-1,-1 -2,-1 -3,-2zm-379 4c2,2 3,3 5,4 -1,-2 -3,-3 -5,-4zm-117 3l2 4c1,-1 3,-2 5,-4l-7 0zm537 11l2 6 8 1 2 -1 0 -6 -12 0zm-36 1l-5 9c-2,3 -2,6 -3,10 3,2 4,5 6,8l10 32 1 14c-1,3 -2,6 -4,8l-4 10 -3 21 1 3c0,3 1,6 3,10l5 8 8 7c1,3 2,6 3,8l8 -1 -1 -4c-3,-2 -6,-4 -9,-6l-3 -11c2,-2 5,-5 9,-6l1 -8 -2 -3c-3,-1 -5,-4 -6,-7l12 -3c3,-2 4,-5 4,-9l-7 -7c-3,-2 -5,-5 -6,-8l-4 -10 0 -15 2 -11 -8 -7 -2 -11 0 -15c-1,-2 -3,-4 -6,-6zm-388 1l2 5 11 -1c-4,-1 -8,-3 -13,-4zm199 5l5 7 9 -1c-5,-3 -9,-5 -14,-6zm-285 6l-11 7 -8 8c-2,3 -4,6 -4,11 3,-1 6,-2 9,-3l8 -9 2 -4 17 1 -2 -7c-3,-3 -7,-4 -11,-4zm497 5l0 6c2,-2 3,-4 5,-6l-5 0zm-443 2l-7 3c0,2 2,4 4,5l6 -3c0,-2 -2,-4 -3,-5zm26 0l-3 6 4 0c1,0 1,-1 2,-2 -1,-1 -2,-3 -3,-4zm21 13l-13 7c-2,2 -3,5 -4,9l13 -5c1,-3 3,-7 4,-11zm-41 7l-11 4 -9 5c-2,3 -3,6 -5,9l-2 6 0 3 2 -1 17 -12 9 -4c1,-2 1,-5 1,-8 0,-1 -1,-2 -2,-2zm-3 27c2,2 5,5 8,7l14 0c-3,-2 -6,-4 -10,-5l-12 -2zm-36 13l10 3c0,4 -2,7 -3,11l-9 1 2 -15zm34 9l1 9 8 -2 1 -6 -10 -1zm23 1l1 4 10 -1c-3,-2 -7,-3 -11,-3zm-73 13c5,2 8,5 9,11l1 5 -8 1 -3 -1c-5,-2 -8,-5 -11,-9 4,-3 7,-5 12,-7zm508 2c1,2 2,4 3,5 0,-2 -1,-4 -3,-5zm-475 3l1 16 -9 -1 -1 -13 9 -2zm-30 18c2,1 4,3 6,6l-11 0c1,-2 3,-4 5,-6zm552 7l1 13 10 -2 1 -3 -2 -8 -10 0zm-50 10c1,1 2,2 3,2l2 -2 -5 0zm56 8c-3,3 -5,6 -6,11l3 28c3,2 6,3 10,4 2,-3 4,-6 5,-10l-3 -12 -1 -15 -8 -6zm-54 5l-2 3 3 8 13 -2 3 -6c0,-1 -2,-1 -3,-2l-14 -1zm-501 2l6 1 2 -1 -8 0zm84 32l13 2 4 2c0,2 -1,4 -2,5l-11 2 -4 -11z"/>
   <path class="fil0" d="M983 2841l12 0 0 9 -10 0 -2 -9zm51 0l16 0 3 1c2,2 3,5 4,8l-27 0 4 -9zm49 0c7,0 15,1 23,3 5,0 9,2 12,6l-9 1 -17 0 -5 1 -3 -1c-3,-2 -5,-4 -8,-7l7 -3zm47 0l14 0 3 1 2 9 -3 3 -12 -2 -5 -2 1 -9zm-115 3c3,0 5,2 8,4l-4 0 -6 2 2 -6zm-118 3l9 0 -2 7 -7 2 0 -9zm54 3l12 2c0,2 0,4 -2,6l-14 7c4,2 9,4 15,4l13 0 -1 -7c3,-2 8,-3 12,-4l6 0 -5 12c3,-1 5,-2 8,-4l1 -11 9 1c5,3 9,5 14,9l12 8c1,-5 3,-10 5,-16l20 -1c6,1 12,2 19,3l14 7 13 -8 20 1 18 5 13 7c2,3 3,7 4,11l-5 1 -1 11 5 4 6 15 4 17 0 16 3 2 5 16 2 19c2,5 4,9 6,14 2,5 4,10 5,17 2,4 3,10 4,17 -4,2 -8,3 -13,3l0 -6c0,-5 -1,-11 -3,-18l-6 -14 -3 -18 0 -12 -5 -3 -7 -2 -1 13 -4 8 6 2 1 16 -1 3c4,2 7,6 10,11 1,5 2,11 4,16 3,4 6,7 9,12l16 5 11 47 -4 -1 -17 -1 0 -4c3,-5 5,-10 6,-16 0,-5 -2,-10 -6,-16 -2,-3 -5,-7 -9,-10 -2,5 -5,9 -8,13 -5,1 -11,3 -17,5 -3,2 -5,4 -7,8l4 0 30 -3 4 1 1 3c-2,4 -3,7 -4,11 3,4 5,10 5,16l5 4 7 1 2 -1 10 -1 -2 9c-4,2 -10,4 -16,5 -1,0 -2,1 -2,2l2 6 5 2 13 1 -1 5c-1,5 -3,10 -4,15 3,3 7,7 12,10l4 11 -5 -1 -7 1c1,4 2,7 3,10 4,3 8,6 11,11l-5 15 8 35c2,4 5,8 9,11l7 3c-1,4 -2,7 -4,10 2,4 3,9 4,14 -2,6 -6,10 -13,10l5 4 10 0 0 11c1,6 3,11 6,16l7 14 17 67c1,6 1,11 3,18 0,5 1,11 3,18l2 19c2,4 3,10 4,17l6 16c1,4 3,10 4,17l7 34c1,5 2,11 3,18l1 20c0,5 -2,11 -5,16 -4,2 -10,4 -16,5l-6 -1 -2 12 1 10 17 -5 6 23 0 12 -1 9c-4,2 -10,4 -16,5l-19 -1c-5,-2 -11,-4 -16,-6l-1 6 1 2 -21 0 -3 -8 -10 -1 -1 5c-5,2 -11,4 -17,4l-43 0c-3,-1 -6,-2 -10,-3l-4 1 -21 0c-6,0 -12,-2 -18,-4l-3 -31 6 -2 13 -9 0 -13 -6 -2 -7 14 -10 -1 -9 -73c2,-2 4,-4 6,-6l-8 -12 -6 -14 -6 -36 -61 0c-4,-3 -7,-7 -9,-12l-7 -56 0 -6 15 0 -1 -10 -5 0 -4 7c-3,0 -6,-2 -8,-4l-4 -4 -3 10 7 74 -20 -1 -3 1 -15 1 -3 2 -15 91c0,6 -3,10 -9,12l-18 -3c-5,1 -9,4 -12,9l-13 8 -16 6c0,3 -1,6 -3,10l8 0c5,1 9,4 12,8l-1 11 -2 4 2 1c-2,2 -5,4 -8,5l-33 3 -6 0c-3,-3 -5,-7 -7,-13 -2,-4 -4,-9 -5,-15l-5 -66 -7 3 -2 -2 -8 -12 -12 -30 -3 -19 -6 -3 0 10 2 18c1,5 3,10 5,16 2,5 5,10 8,14l-3 8 10 23 4 16c2,5 3,11 4,18l1 15 -1 3c-2,5 -4,9 -8,14l-11 2 -8 -60 -1 -3c0,-5 -1,-11 -3,-17 -1,-4 -4,-7 -8,-8l1 5 2 39c1,5 2,11 4,17l4 9 -1 6c-2,5 -5,10 -8,14l-14 -1 -1 -5 0 -21c0,-5 -3,-10 -7,-14l-1 41 -3 2 -13 -3 -16 -6 -4 1 3 7c-3,1 -7,2 -12,2l-1 -7 0 -21 3 -18 7 -14 0 -9 3 -8c1,-5 3,-10 8,-15l5 16 1 -4 -2 -30 1 -3 0 -15 26 -128c1,-5 2,-11 4,-17l9 0 1 -11 0 -15 1 -5 1 -20c3,4 6,7 8,12 1,4 3,10 4,17 1,5 2,11 4,17 1,1 2,3 4,4 1,-2 3,-5 4,-8l7 -5 -4 -5 -7 -13c-2,-5 -3,-11 -5,-17l-2 -39c4,-4 7,-8 10,-13l0 -21 -4 -1 24 -146 12 2 10 -1 1 -5 -1 -2c-2,-3 -4,-7 -5,-12l4 -1c3,-4 5,-8 6,-14l19 -106 0 -21 -2 -16 11 -35 10 -12c4,3 8,5 13,6l20 0c2,-5 5,-8 11,-10l6 -2 -5 -6 -8 1c0,-3 2,-6 4,-9l14 -1 4 -2c4,0 9,-3 13,-7zm104 16c0,1 1,2 2,3 2,-1 3,-2 4,-3l-6 0zm-154 3l7 1c0,4 -2,6 -6,8 -2,-1 -4,-3 -6,-6l5 -3zm204 3c1,2 2,4 4,6 0,-2 -2,-4 -4,-6zm-101 4c1,4 2,7 4,9l3 1 9 -1c0,-2 -1,-5 -2,-8l-14 -1zm-48 8c2,5 5,9 9,13 4,2 9,2 14,3 -1,-4 -3,-8 -6,-12 -5,-2 -10,-3 -17,-4zm74 1c1,3 2,6 4,8 0,-3 -1,-5 -4,-8zm-39 17l0 5 10 -1c-3,-1 -7,-3 -10,-4zm42 14c1,3 2,6 4,8l2 -8 -6 0zm20 8l-2 8 6 -1 2 -7 -6 0zm-132 9l3 16c2,3 4,5 7,7l1 -17 0 -6 -11 0zm158 3c1,1 2,1 3,1l-3 -1zm18 5c2,6 6,9 12,10l1 -3 -2 -7 -11 0zm27 4c-2,1 -5,3 -6,6l8 5 7 8 11 -1c1,-3 2,-6 2,-10l-1 -5 -4 3c-3,0 -5,-1 -8,-3 -2,-1 -6,-3 -9,-3zm-199 32c0,5 3,8 8,9l2 -8 -10 -1zm184 15c1,4 1,8 2,12l10 -2 1 -3 -1 -7 -12 0zm-268 6l5 0 0 7 -5 0 0 -7zm62 12l-6 0 1 17 -3 11c-2,-1 -5,-3 -8,-5 -1,-1 -4,-3 -6,-6l-9 2 9 14c5,4 10,6 17,7 0,-6 3,-11 8,-16l10 -1 -3 -11c-1,-5 -5,-9 -10,-12zm-26 1l0 3 1 0 4 -1 -5 -2zm128 7l-30 271 0 15c1,3 4,6 6,9l3 27c3,2 6,3 9,4l9 -5c3,-2 5,-3 6,-6l-9 -6c-3,-1 -6,-4 -8,-7 1,-3 4,-6 7,-8 4,0 7,0 11,2 1,3 4,6 7,8 3,1 7,2 12,2l5 -10 23 -8c2,-1 5,-3 8,-4 4,2 7,4 11,5 4,0 6,-3 6,-8l-18 -10 -13 -13 -1 4 0 4c-3,0 -5,-1 -7,-4l-29 -256c0,-4 -3,-6 -8,-6zm-171 13l4 7 -3 3 -1 -10zm249 3c2,2 4,2 6,3l-6 -3zm-166 7l0 14c0,3 2,5 4,7l9 5c3,2 5,3 9,4l0 -3 -1 -7 -6 -9 -7 -7 -8 -4zm126 16c0,3 1,4 3,6 0,-2 -1,-4 -3,-6zm-221 21l5 1c0,5 -1,10 -3,15 -1,0 -2,-1 -3,-2l1 -14zm265 6l0 10 9 -1c-2,-4 -6,-7 -9,-9zm58 3l-13 4 -19 13c1,2 2,3 4,3l35 -12 0 -8 -7 0zm-77 17c2,2 4,3 6,3 -2,-1 -4,-2 -6,-3zm35 4l-14 5c-2,2 -4,5 -5,8l5 0c3,0 6,1 9,2l3 -3c1,-3 2,-7 2,-12zm-270 9c-5,0 -8,2 -11,6l-1 8 0 4 3 0 0 -2 9 -8 4 -8 -4 0zm210 2c-2,1 -3,2 -3,4 1,-1 2,-2 3,-4zm30 4c-4,1 -7,3 -9,7l5 -1c3,-1 6,-3 8,-6l-4 0zm-250 18l-11 17 5 1 10 -9 1 -7 -5 -2zm126 11l-5 2c0,4 1,7 3,10l4 -3c0,-3 -1,-6 -2,-9zm150 10c0,3 1,6 2,10l0 -8c0,-1 -1,-2 -2,-2zm-139 2l-2 8 4 -1c2,-2 3,-4 4,-7l-6 0zm-140 8c-2,1 -3,2 -3,4l5 2 2 -5 -4 -1zm150 9l-10 6 -1 5 7 1c2,-2 5,-4 7,-6l2 -6 -5 0zm146 4l-3 11 -11 3c-2,2 -4,5 -5,8l-2 12c1,1 3,2 5,2l13 -1 5 9c1,3 3,5 6,7l5 -1 -2 -6c-2,-2 -4,-4 -6,-8l6 -7 -7 -7 -2 -7 4 -1 9 -4 -6 -7 -9 -3zm-243 5l-1 5 2 4 5 -1 1 -8 -7 0zm-59 10c1,6 5,9 11,11 0,-4 -1,-7 -2,-11l-9 0zm83 19l-2 14c0,2 2,5 4,7 1,-4 2,-8 3,-13 -1,-3 -2,-6 -5,-8zm-90 1l5 13c-1,1 -3,2 -4,4l-1 13 6 -1c1,-6 4,-13 7,-20 -1,-6 -6,-9 -13,-9zm66 8l-8 3c2,3 3,6 6,9l11 12 6 0c0,-4 -1,-8 -4,-12 -3,-4 -6,-8 -11,-12zm24 24l-3 13 -2 27c0,4 0,8 2,12 1,-3 1,-7 2,-12l2 -27 -1 -13zm247 10l-1 6c1,1 2,2 4,2 0,-3 -1,-6 -3,-8zm80 0c1,2 3,4 5,5 -1,-3 -2,-4 -5,-5zm-157 8c0,5 3,10 8,14l15 6c-1,-7 -5,-10 -12,-11 -3,-3 -6,-6 -11,-9zm-266 17l-5 1 2 13c1,-4 2,-9 3,-14zm64 1c1,4 1,8 3,12l1 -10c-1,-1 -2,-2 -4,-2zm237 1l-7 2 1 12 4 20 5 1 0 -17 -3 -18zm-58 1c2,0 5,1 8,1l-1 7c-4,-1 -6,-4 -7,-8zm17 24l3 10c3,2 6,3 10,3 0,-3 -1,-7 -2,-11l-11 -2zm-169 5l-3 36 5 -1 2 -15 0 -3c0,-6 -2,-11 -4,-17zm195 0l-2 7c1,1 2,2 4,2 0,-3 -1,-6 -2,-9zm-133 1l-1 13c2,1 4,2 7,3l2 -12c-2,-2 -4,-3 -8,-4zm154 1l2 8 10 -1c-2,-4 -6,-7 -12,-7zm-290 3c-2,3 -3,6 -4,10l5 -1 3 -9 -4 0zm234 7c-1,5 -2,9 -3,14l5 -1c2,-3 3,-7 3,-10l-5 -3zm42 3l3 15c1,4 3,7 7,8l1 -12 -2 -4c-2,-3 -5,-5 -9,-7zm-81 6l-3 6 1 2 2 3 7 -2c1,-2 2,-6 3,-9l-10 0zm180 4l0 5c2,-1 4,-2 6,-4l-6 -1zm-378 1c0,2 1,3 3,3 1,0 2,-1 4,-3l-7 0zm326 4c0,4 2,8 4,12l8 5 -3 -13c-3,-2 -6,-3 -9,-4zm-149 2c-5,4 -7,9 -8,16 3,5 5,10 7,17 3,-5 4,-10 5,-15 0,-6 -2,-11 -4,-18zm214 10c-2,2 -3,4 -4,7 3,-2 4,-4 4,-7zm-315 11c0,3 1,7 3,9 0,-3 -1,-6 -3,-9zm-87 3c-4,3 -9,6 -14,7 0,6 1,13 3,19 4,-2 8,-5 11,-9 1,-4 2,-9 2,-15 0,-1 -1,-1 -2,-2zm419 0c-4,1 -8,4 -10,7l0 5 11 -1 2 -7 7 2 0 -6 -10 0zm-44 6l-18 5 -80 55c-4,1 -7,4 -7,8 5,-1 11,-3 17,-6 4,-2 9,-5 13,-8l28 -17 17 -6c4,-4 7,-7 10,-12l13 -9c4,-2 7,-5 7,-10zm14 0l1 12 7 -2 2 -10 -10 0zm-304 7l0 17 -1 3 -2 78 -1 9 0 45 4 -1 0 -16 2 -3 0 -20 2 -38 0 -37 1 -2 0 -34 -5 -1zm-74 6l0 14 8 0c-1,-5 -3,-10 -8,-14zm285 4c0,2 1,4 3,5 0,-2 -1,-3 -3,-5zm-148 6l-4 3 0 6 2 1 3 -2 0 -8 -1 0zm-155 1l-1 14 1 3 7 12 7 30 4 61 6 -3 2 -35 -2 -36c-1,-4 -3,-9 -6,-13l-1 -14c-1,-4 -3,-8 -6,-12 -3,-2 -7,-5 -11,-7zm384 3l-1 6 2 -4 0 -2 -1 0zm68 7c2,3 4,6 7,8 0,-4 -2,-7 -7,-8zm-295 10l0 12 13 -1c-2,-5 -7,-9 -13,-11zm219 0c-4,4 -8,7 -15,9l3 13 4 -1c3,-4 7,-7 12,-10l3 -11 -7 0zm77 6c-4,0 -7,2 -9,6 3,1 7,2 10,2 4,-1 7,-3 9,-5 -3,-2 -6,-3 -10,-3zm-56 2c2,1 5,3 8,3l-8 -3zm-183 6c1,2 2,4 4,5 -1,-2 -2,-4 -4,-5zm11 0c1,2 2,4 4,6 0,-2 -2,-5 -4,-6zm115 0c-3,1 -6,4 -8,7 1,3 2,5 4,7 3,-1 5,-4 7,-7l1 -7 -4 0zm-30 6l-5 10 6 -3 9 -6 -10 -1zm81 6l0 10c0,1 0,2 2,3 0,-4 -1,-8 -2,-13zm-61 7c-1,3 -2,6 -2,10l3 0 2 -8c0,-1 -1,-2 -3,-2zm21 2l1 10 2 1 5 -1 2 -1c0,-6 -4,-9 -10,-9zm-47 12l1 28 8 -1c0,-4 -1,-9 -3,-14l-6 -13zm93 5l-1 11 4 0c-1,-3 -2,-7 -3,-11zm-452 2l0 3 2 -2 -2 -1zm416 0l0 15 7 -3 3 -2c4,2 10,3 15,4 0,-4 -3,-8 -8,-11l-17 -3zm-35 3l-4 1c1,2 2,4 4,7 3,3 6,5 10,6l2 -7 -1 -3c-3,-2 -7,-3 -11,-4zm76 6c1,2 2,4 4,6 -1,-2 -2,-4 -4,-6zm-56 4l-2 5 4 1 -2 -6zm73 3c0,4 2,7 5,10l0 -10 -5 0zm-477 5l-1 14 1 12 5 11 0 28 -6 8c3,2 5,4 9,5l4 11 5 0 -7 -71 0 -15c-3,-1 -6,-2 -10,-3zm417 0l-2 6 4 0 3 -5 -5 -1zm22 0l-2 5 2 9 0 3c0,6 -3,9 -10,10l-7 2c0,2 1,5 3,8 5,0 11,1 17,3 4,2 7,3 12,4l-8 -18 -1 -11 3 -6 1 -8 -10 -1zm-93 8c1,1 2,3 4,5 -1,-2 -2,-4 -4,-5zm22 5l-14 2 0 9 5 2 4 13 6 9c1,2 2,2 3,2l6 -4c0,-2 -1,-5 -3,-7 -2,-4 -3,-8 -5,-13l-2 -13zm-235 4c0,4 1,7 2,10l1 -6 -1 -2c0,-1 -1,-1 -2,-2zm354 7l1 3 1 -3 -2 0zm-99 11c1,1 3,2 5,3 -1,-2 -3,-3 -5,-3zm11 7l6 3c-2,-1 -4,-2 -6,-3zm-6 2l-3 8c1,1 2,2 3,2l2 -8c0,-1 0,-1 -2,-2zm138 8l0 5c2,-1 4,-3 5,-5l-5 0zm-411 7l1 11 8 0 0 -11 -9 0zm328 0l1 14c2,2 5,4 9,5l-3 -12c-2,-3 -4,-5 -7,-7zm-84 1l1 10 5 0 0 -10 -6 0zm36 7l-4 7 3 -1 3 -4c-1,-1 -1,-2 -2,-2zm35 6c0,3 1,5 3,8l1 -8 -4 0zm104 4l-8 6 -3 5c1,0 2,1 4,1 3,0 6,-1 9,-3l1 -8 -3 -1zm-549 1c-2,3 -4,5 -6,9l7 6 5 0 -1 -7c-1,-3 -3,-5 -5,-8zm418 3c2,4 6,6 11,7 -3,-3 -7,-6 -11,-7zm-42 2c1,2 2,4 4,6 0,-2 -2,-4 -4,-6zm152 7c-1,2 -1,5 -2,7l5 0 3 -7 -6 0zm-22 11c-3,2 -6,5 -9,8l6 2c4,-1 7,-2 10,-5 -2,-2 -5,-3 -7,-5zm-502 7l-1 14c0,4 2,9 3,13l0 -15c0,-4 0,-8 -2,-12zm567 -1c4,1 7,3 10,6l5 11 0 16c0,4 -1,8 -3,12 -4,0 -7,-3 -8,-7l0 -15 -2 -14c-1,-3 -2,-6 -2,-9zm-94 9c-3,1 -6,3 -9,5 0,4 2,6 6,6 3,0 7,-2 10,-4 0,-4 -2,-6 -7,-7zm-490 1c1,2 2,3 5,3 -2,-1 -3,-2 -5,-3zm432 10l2 5 1 -5 -3 0zm95 7l0 5 6 -1c-1,-2 -4,-3 -6,-4zm-133 6c0,4 2,7 6,7l2 -7 -8 0zm165 5l-3 3c2,3 4,4 7,6 0,-3 -1,-6 -4,-9zm-118 2c1,3 3,6 5,9 5,1 9,1 14,2 -1,-4 -2,-7 -5,-10l-14 -1z"/>
   <path class="fil0" d="M1387 2883l94 2c4,1 5,4 6,8l4 10c2,3 4,5 6,8l7 6 14 0c3,1 6,3 9,5l9 5c3,1 5,3 6,7l-1 12 -5 9c0,4 -1,8 -2,12 -3,1 -5,3 -8,5l6 9 9 5c-3,2 -4,5 -5,8 0,3 1,6 3,8 3,1 6,3 10,4l7 7 21 6 17 12 5 8 4 9 5 18 -6 -2 -10 -2c1,2 4,4 7,6 4,1 7,3 10,5 2,2 5,4 8,6 2,1 4,4 5,8 -3,1 -6,2 -10,2l-6 0 5 4 9 0 0 4c1,3 2,6 4,10l11 4 2 7 -1 3c-1,0 -2,1 -3,2l4 4 7 7 6 8 3 11 -10 2c-2,2 -2,6 -3,9 2,2 5,4 8,6l9 3 9 7c2,2 4,5 5,8l3 5 -13 -2 -1 3c2,2 5,3 9,4l8 6c1,3 2,7 2,12 1,3 3,5 6,7 0,3 -1,6 -4,9 -2,1 -3,2 -5,5l1 12c1,4 1,7 3,11l9 6 4 2c0,2 -1,4 -2,5l-3 2 1 8 7 6c2,3 3,7 4,10l3 10c3,2 5,4 8,7l5 9c-1,1 -2,2 -4,4 -3,-1 -5,-3 -6,-7l-7 -7c-2,-2 -5,-4 -8,-5 -1,2 -2,4 -2,6l5 9 9 5c2,2 4,4 7,7l8 5 3 12c1,3 2,6 3,10 3,2 6,3 10,4l7 -20 1 -8 0 -3 -1 0c-2,-2 -4,-4 -6,-7l1 -14 0 -55 1 -13 0 -41 2 -39 6 -8c0,-4 -1,-7 -3,-10 -2,-3 -3,-6 -4,-10l0 -249 25 -3 150 -1c1,3 2,7 3,11l0 427 -1 12 -8 -6 -5 -2 -2 4c0,3 2,7 3,10l9 -3c2,3 3,7 4,10l0 74 -20 -3 -2 -11 -3 -1 -8 1 -4 11c2,3 4,5 7,7l8 1 3 -1 9 0 0 6c1,2 2,3 5,3 1,-1 3,-3 5,-3l0 145c0,3 -1,7 -3,10l-8 0c0,-8 -1,-14 -3,-18l-4 -10c0,-1 -1,-1 -2,-2l-6 2c-2,2 -5,4 -6,7l5 9 3 11 -2 11c-3,2 -7,4 -11,5 -2,-3 -3,-6 -4,-10 0,-4 -1,-8 -2,-12 -2,-2 -5,-3 -8,-4 -2,2 -4,5 -5,8l-1 7 4 1 2 8 -4 1c-3,-2 -5,-4 -8,-7 -1,-2 -4,-5 -7,-7 0,-3 -1,-7 -3,-10l-9 -2 -5 9 -2 12 5 9 11 16 4 10 10 3c3,2 5,4 7,7l5 9 10 3c4,-1 6,-3 8,-6l-5 -22 -1 -9c1,0 2,-1 3,-2l32 -18 0 74 -138 1c-2,-3 -4,-6 -6,-9l-3 -10 -2 -35c1,-1 2,-1 3,-2l37 -4 -3 -11 -16 -12c-2,0 -5,-1 -9,-1l-2 1 -23 -5 -3 -6c1,-2 1,-3 2,-3l9 -2 3 1c3,0 6,2 9,4l11 3 3 -11c-2,-1 -5,-2 -9,-4l-22 -19c-4,1 -8,1 -12,3 -1,3 -4,5 -7,7l-19 5 -3 -1c1,-3 2,-6 2,-9l-4 -2c0,-3 1,-5 2,-7l2 -4 -4 -2c1,-3 4,-5 7,-7l9 1 3 0 0 -1c2,-2 5,-5 8,-6 2,-3 3,-6 4,-9 -1,-3 -3,-6 -6,-8l-6 -2c-1,0 -2,0 -3,2l-2 11c-2,3 -5,4 -9,6 -4,-1 -7,-2 -11,-4l-11 -2c-3,-1 -6,-3 -8,-6l-65 -143 -5 -8 -17 -39 -5 -8 -38 -85c-3,-2 -6,-4 -9,-5l-4 135 -7 20c-2,2 -5,4 -8,7 2,2 5,3 8,3l5 -3 3 17 0 14 1 6 -1 3 1 15c-2,3 -4,5 -7,8 1,3 2,6 4,9l2 11 1 55 -10 4c-1,2 -2,5 -2,8l11 2 1 3 -1 10 0 41c0,4 -2,6 -6,8 -3,0 -6,2 -9,5 0,4 3,6 7,7l8 -5 5 8 3 12 0 13 -2 13c-2,2 -6,3 -9,4 -3,-1 -5,-2 -7,-4 2,-2 4,-5 5,-8 -2,-2 -4,-4 -7,-6 -2,2 -3,5 -4,9 -3,1 -7,2 -11,3l-5 -7 -5 -8c-3,0 -6,1 -9,3 -2,3 -5,4 -8,6l-13 -1c-2,2 -4,4 -6,8l-4 4 -3 -3 -3 -11 -2 5c-3,1 -6,2 -10,3 -3,0 -7,0 -11,2 -4,1 -8,2 -12,3l-9 -4 -7 -7 -7 -7 -2 -3 -6 2 -3 11 -11 3 -7 1 0 -212c0,-4 1,-8 2,-12l25 -2c2,3 3,7 3,11l-1 8 4 1 3 -8c0,-2 1,-4 3,-6l9 -1 3 1 9 1 3 -1 8 -5 9 -3c4,1 7,3 11,5l19 8 0 -11c3,-2 7,-3 11,-4l10 4c3,-2 5,-3 7,-6 -1,-2 -2,-4 -4,-6l-11 -4 -12 1 -10 4 -22 -6 -32 8 -13 -1 -22 -5c-4,0 -7,2 -8,6 -2,-2 -3,-5 -4,-8l0 -55 1 -14c3,-2 4,-5 5,-8 -3,-1 -5,-3 -6,-7l0 -125 1 -12c2,3 3,6 4,10l5 -6 3 -25 -4 -74 4 2c2,2 4,3 7,4l2 -7 -1 -3 -8 -3 -4 -10 -4 4 -2 39 -3 6 0 -170 1 -13 0 -15 1 -9 0 41 3 25 0 40 1 7c2,-1 3,-2 4,-4l5 -9 6 -7 8 -5 10 -1 1 -12 -1 -14c2,-1 5,-2 8,-2l2 -6 -1 -3 -7 -6 -14 -42 -4 -9 -6 -8c-2,-2 -4,-6 -5,-9l-2 -11zm28 8l4 16 6 12 8 12 5 4 7 -2c1,-3 1,-6 1,-9l-1 -2 -1 -3 -17 -22c-3,-2 -8,-4 -12,-6zm64 30l-3 6 3 2c4,2 8,3 12,4 1,-1 2,-1 2,-2l-2 -6 0 -2 -12 -2zm343 5l0 9 2 -7c0,-1 0,-1 -2,-2zm-433 17l1 7 -2 2 1 -9zm395 3l-5 13c1,3 2,7 4,11 -3,3 -5,6 -9,8l-10 0c-2,1 -3,1 -3,3l24 0 0 -9 2 -24c-1,-1 -2,-1 -3,-2zm35 3c-3,3 -7,6 -9,11l0 39c3,2 7,4 10,7l5 35 4 16c2,4 5,7 8,11l-2 -37 -8 -33c-1,-4 -4,-8 -8,-11l0 -20c1,-6 4,-9 10,-9 -1,-5 -5,-8 -10,-9zm-270 4c6,1 9,4 10,10 -5,-2 -8,-5 -10,-10zm307 26l2 5 9 -1c-4,-2 -7,-3 -11,-4zm-417 5c1,1 3,2 6,3l-6 -3zm127 -1l7 3 -7 1 0 -4zm218 8l-3 9 0 10c-1,6 -2,13 -2,21 1,5 3,11 5,18 1,6 3,12 5,18l4 -1 0 -34 -1 -5 -2 -21c0,-5 -2,-10 -6,-15zm-308 3c1,2 2,3 3,3l-3 -3zm17 0l-2 6 5 -1 3 -5 -6 0zm396 7l-18 1c1,2 2,3 4,4l13 0 4 0c0,-2 -1,-4 -3,-5zm-375 1l1 4 4 -1 -5 -3zm-61 10l-5 3 2 6c2,-3 3,-6 3,-9zm355 7l1 19c0,4 1,9 3,13l1 -18c-1,-5 -2,-10 -5,-14zm-247 1c1,4 3,7 5,12 3,1 6,2 10,3 0,-4 -2,-8 -4,-12l-11 -3zm-25 17c1,2 2,4 5,5 -1,-2 -3,-4 -5,-5zm38 9l-1 11c4,1 8,1 13,2 -2,-6 -6,-11 -12,-13zm-169 1l3 25 -1 14c3,1 6,2 9,2l1 -26 -3 -11c-3,-1 -5,-3 -9,-4zm24 1l1 13 6 0c-2,-5 -4,-9 -7,-13zm-46 4l-2 4c1,2 2,5 3,8 2,-3 2,-6 3,-9l-4 -3zm92 9l-1 7 7 0c-1,-3 -3,-5 -6,-7zm25 5l0 13 6 -3 2 -5 -2 -4 -6 -1zm42 0c1,3 2,6 3,9 0,-3 -1,-6 -3,-9zm-146 3l-2 3c0,2 1,3 3,4l0 -7 -1 0zm456 3l1 4c3,-1 4,-2 6,-4l-7 0zm-267 4l-7 4 5 0 6 0c-1,-1 -2,-3 -4,-4zm224 0l1 9c2,-1 5,-1 7,-2l1 -6 -9 -1zm20 4l0 19 2 0 2 7 7 -5 4 -8c0,-2 -1,-4 -2,-6 -3,-3 -8,-6 -13,-7zm-397 0c-2,5 -3,9 -5,15l-3 5 -5 1 -2 -1 -7 0c1,3 4,4 7,6 4,2 6,7 7,12l0 8c3,0 6,-1 8,-2l7 -41 -7 -3zm359 2l-2 11c-2,3 -4,5 -6,7 -3,2 -5,4 -7,8 1,2 2,5 5,8l11 -1 2 -12 0 -15 -1 -3 -2 -3zm-237 1l2 16 33 0 -17 -9c-5,-3 -11,-5 -18,-7zm-98 1c0,3 2,5 7,6 0,-3 -3,-6 -7,-6zm24 13l4 13 5 -2 1 -9 -10 -2zm-85 15l-1 7c1,1 2,2 3,2l2 -6 -4 -3zm438 2c-5,1 -10,4 -14,8 3,5 5,11 6,19l-2 23 0 6 10 -8c5,0 9,-3 10,-7l-5 -1 -2 1 -2 0 0 -13c2,-5 5,-11 8,-17 -1,-5 -4,-8 -9,-11zm-422 2c-2,3 -3,6 -4,10l6 -1c1,-2 2,-6 3,-9l-5 0zm168 0c3,2 5,3 9,4 -2,-2 -5,-3 -9,-4zm286 4c-2,4 -3,7 -4,12 1,3 3,6 6,9 1,-3 2,-7 2,-10 0,-4 -2,-7 -4,-11zm-68 6l-1 33 2 14c2,3 4,4 6,5l4 -13 -1 -16c-1,-4 -2,-9 -3,-13 -2,-4 -4,-7 -7,-10zm-419 9l1 31 -1 3 -1 -31 1 -3zm217 2c-3,1 -7,2 -10,4l5 6 8 -5c0,-2 -1,-4 -3,-5zm-107 5c-2,6 -3,13 -3,21l2 14 4 0c2,-1 2,-3 3,-5l-2 -29 -4 -1zm-62 4l0 42 6 2 4 -1 1 -14 -4 -24c-1,-2 -4,-4 -7,-5zm-19 2l4 11 6 -2c-1,-5 -4,-8 -10,-9zm183 11l1 13 4 1c5,1 10,3 15,5l4 9 0 -13 19 -2 0 -9c-5,-1 -10,-2 -15,-2 -5,1 -9,2 -15,3 -4,-2 -8,-4 -13,-5zm274 3l-1 3 1 8 7 0 1 -11 -8 0zm-398 5c0,3 2,6 5,8 0,-3 -2,-6 -5,-8zm-61 2l0 5 6 -2 -6 -3zm430 11l1 57 3 12 4 11 2 13 0 6 8 -1 2 -14 -5 -41 -10 -35c-1,-3 -3,-6 -5,-8zm-33 6l-5 2 3 57 4 20c2,1 6,1 10,2l6 16 13 78c0,5 1,11 4,18l6 0 4 35c1,6 2,13 2,20 1,3 2,5 3,8 3,-1 4,-3 6,-5l2 -9 -9 -70c-3,1 -7,3 -10,6 -2,-6 -4,-12 -4,-19l2 -10 6 4c1,2 3,5 4,7l1 -9 0 -7 -9 1 -3 -1c-5,-4 -8,-8 -9,-15l-1 -34 -1 -9 -8 -13 -6 -17 -8 -55 -3 -1zm-308 2c-1,3 -2,8 -2,12l0 5 6 -4 4 -10 -8 -3zm-87 2l-1 3 1 18 6 0 0 -14c-2,-3 -3,-5 -6,-7zm217 14l-1 8 1 3 14 15c2,1 5,3 8,4l1 -7 -11 -9 -4 -8c-2,-3 -5,-5 -8,-6zm-242 3l-1 10 5 0c-1,-3 -2,-7 -4,-10zm490 5c-1,1 -3,3 -4,5 3,-1 4,-3 4,-5zm-341 1l-1 3 2 0 2 -2 -3 -1zm-103 7l-1 4 1 12 5 0 1 -15 -6 -1zm52 0c1,3 3,5 5,8 0,-4 -2,-6 -5,-8zm-98 8l0 10 2 -1c0,-3 0,-7 -2,-9zm508 2c0,2 1,5 2,7l0 -6 -2 -1zm-428 1l2 3c-1,-2 -1,-3 -2,-3zm410 6l-2 11 4 -1c1,0 2,-1 2,-2l-1 -6 -3 -2zm-223 1c1,4 2,8 3,13l4 -2c0,-5 -2,-8 -7,-11zm13 20c0,5 2,8 7,11l0 -9 -7 -2zm-62 4c1,4 3,8 6,11l-2 -10 -4 -1zm277 0c-1,3 -3,6 -3,10l5 0c2,-2 3,-4 4,-7l-6 -3zm16 2c1,2 3,3 5,3 -1,-2 -3,-3 -5,-3zm-493 1l-1 7 7 0 1 -7 -7 0zm507 1l0 9 -6 1 -31 13 -12 3c-3,2 -5,4 -7,7l-5 8c1,3 2,6 5,9l1 -11 35 -10 10 -4c3,-2 5,-4 8,-7 2,-3 3,-6 5,-10l1 -8 -4 0zm-422 8c1,3 2,5 5,7 -1,-3 -2,-5 -5,-7zm-102 1l-1 38 13 -17c0,-2 -1,-4 -2,-6 -2,-4 -5,-9 -10,-15zm428 7l1 12 1 -9c0,-2 -1,-3 -2,-3zm-32 1l5 2 2 -2 -7 0zm-106 3c2,2 5,4 7,5 -1,-3 -3,-4 -7,-5zm-188 5l-1 8 7 0c-1,-3 -2,-6 -6,-8zm29 0l-2 5 7 8c1,4 4,8 8,11l2 -8 -2 -9c-3,-4 -7,-6 -13,-7zm-87 2l-2 8 1 2 1 3 5 0c2,-4 2,-8 2,-13l-7 0zm188 0l-4 2 6 10 11 9c2,-1 2,-2 2,-4l-3 -9c-3,-3 -8,-6 -12,-8zm132 5l-1 6 3 0c0,-2 -1,-4 -2,-6zm154 5l-2 8 3 -2 0 -5 -1 -1zm-26 1l1 15c3,2 6,3 10,3l2 -9 -2 -3c-3,-3 -7,-5 -11,-6zm-79 3l9 87c3,2 6,3 9,3l-9 -87c-2,-2 -5,-3 -9,-3zm-353 4c-3,1 -6,4 -9,7l5 0c2,-2 4,-4 4,-7zm49 2l0 9 5 0c0,-3 -2,-6 -5,-9zm172 4l2 13c1,3 3,5 5,8l6 7c3,2 6,3 9,3 -1,-3 -1,-7 -2,-11l-5 -9 -6 -7 -9 -4zm-257 8c1,1 3,2 4,3 0,-2 -2,-3 -4,-3zm219 0c2,4 5,8 9,13 2,4 5,8 9,12l9 13c4,4 8,6 13,6l1 -10 -3 -7c-2,-5 -5,-10 -8,-14 -4,-3 -8,-6 -13,-9 -5,-2 -10,-4 -17,-4zm-106 12c3,3 6,4 9,5 -2,-3 -5,-5 -9,-5zm-91 19l-2 15c1,4 3,6 6,8 2,-5 2,-9 3,-14 -1,-4 -3,-7 -7,-9zm95 5l1 5 6 -1c0,-3 -2,-5 -6,-6l-1 2zm377 3l2 3 3 -4 -4 -1 -1 2zm-519 1l0 9 5 0 0 -9 -5 0zm500 2l-3 11 7 2 2 -13 -6 0zm-128 4c2,3 5,5 8,8l10 2c-1,-3 -3,-6 -6,-8l-12 -2zm-254 5c0,4 1,8 3,12 0,-4 -1,-8 -3,-12zm-36 1l1 5 1 -4 -2 -1zm438 0l-2 10 5 26 6 0c0,-5 -2,-11 -4,-18l-5 -18zm-179 3l-1 3 3 12c2,4 6,6 11,7l1 -5 -1 -11c-3,-4 -7,-6 -13,-6zm-312 16c0,4 1,8 3,12l3 1 7 -1c0,-3 -1,-6 -3,-9l-10 -3zm266 0c1,7 4,11 12,13l0 -10c-4,-1 -8,-2 -12,-3zm104 7c-2,2 -5,5 -9,8l-9 8c-5,2 -10,3 -15,3 1,5 3,7 7,9l13 -5c3,-2 6,-5 9,-8l11 -8 1 -7 -8 0zm-51 7l-6 3c1,2 1,5 1,8l1 32 -1 3c-1,4 -4,7 -9,8 -4,2 -6,6 -6,12 -2,3 -4,7 -8,11l-3 15 0 5 7 1 2 -2 3 -16 19 5 4 -43 0 -15 2 -2 2 -4 -1 -11c-1,-4 -4,-7 -7,-10zm74 1l-2 3 3 0 0 -3 -1 0zm-279 1l-1 5 1 2 6 -1 1 -6 -7 0zm299 2c-1,6 -2,12 -3,20l-1 17 3 1 2 7 -2 12c0,5 1,11 2,16l14 55c1,5 4,7 9,8l0 -18 -11 -62c-1,-6 -2,-12 -4,-18 -3,-5 -5,-11 -7,-17 5,-3 8,-7 11,-12 -3,-5 -7,-8 -13,-9zm-132 1c0,3 1,6 2,8l8 -1c-1,-4 -5,-6 -10,-7zm96 11c1,2 2,4 5,6 -1,-3 -2,-5 -5,-6zm-261 9l-5 1 -1 6 3 0 5 -1 1 -6 -3 0zm364 2l-2 15 0 15c0,2 1,3 2,3 1,-4 2,-10 3,-16l-1 -15 -2 -2zm-509 4l0 5 7 -1c-2,-1 -4,-3 -7,-4zm119 1l-2 5c1,2 2,2 3,3l14 1 2 -8 -17 -1zm-27 1l-3 3 6 0c0,-1 -1,-2 -3,-3zm-42 7l2 35c2,0 5,-1 7,-2l2 -17 -1 -4c-1,-6 -4,-10 -10,-12zm242 2l0 5 6 0c-1,-2 -3,-4 -6,-5zm179 4c0,6 -1,13 -3,21l-3 2 4 14c2,5 4,12 6,19 1,6 2,12 5,19l5 0 -8 -58c-1,-5 -1,-10 -1,-16l-5 -1zm-330 3c1,2 3,5 5,6 0,-2 -2,-5 -5,-6zm-51 1c-1,1 -2,2 -3,4 2,1 5,1 8,1l2 -5 -7 0zm-65 4l0 6c3,-1 4,-4 6,-6l-6 0zm313 5l7 5 -9 3c0,-3 1,-5 2,-8zm-207 5c-3,4 -6,8 -10,12l2 14 3 0c5,-2 8,-6 9,-11l-1 -15 -3 0zm-58 5l1 8 8 -1 1 -7 -10 0zm26 9c-2,3 -6,7 -10,10 -3,3 -6,6 -9,10l-7 28 3 1 6 -15c2,-4 4,-7 7,-11l8 -10c2,-3 4,-6 5,-10l-3 -3zm409 14l-4 2 1 17c0,6 3,11 8,16 2,-3 3,-7 4,-12l-1 -8c0,-6 -3,-11 -8,-15zm-92 3c1,2 2,4 3,5 0,-2 -1,-4 -3,-5zm62 35l2 17c1,4 4,6 8,8l-2 -17c0,-4 -3,-7 -8,-8zm-428 2c1,5 3,9 8,12 -1,-5 -3,-9 -8,-12zm28 9l1 8 2 1 5 -2c-1,-4 -4,-7 -8,-7zm367 5l1 12c2,2 5,3 8,3l1 -12 -10 -3zm25 7l-3 5 6 0c0,-2 -1,-3 -3,-5zm-391 7c0,4 1,8 2,12l8 -2 1 -9 -11 -1zm44 9c1,1 2,3 3,5 0,-2 -1,-4 -3,-5zm299 3c0,3 2,6 4,8l4 -2 1 -2 -1 -4 -8 0zm-403 7l0 6 2 -4 -2 -2zm32 3l0 16c1,2 3,4 6,6l1 -15c0,-3 -2,-6 -7,-7zm350 2l1 12 -8 -1 -1 -9 8 -2zm-315 2c-2,3 -3,5 -3,9l1 9c2,4 5,8 8,13l2 -9 -1 -8c-1,-5 -3,-9 -7,-14zm-67 12l-2 9 5 0 1 -9 -4 0zm498 9l-1 14 1 3 12 8 -1 -17c-2,-5 -5,-7 -11,-8zm7 35l1 10 4 -1 1 -9 -6 0zm-428 8c7,0 11,4 12,10l-13 0 1 -10zm-30 3l12 0 -3 5 -7 2 -2 -7zm-35 2l7 1 -7 4 0 -5z"/>
   <path class="fil0" d="M2053 2834l90 1c-2,3 -4,6 -7,8l-58 30 -10 7 -7 7c-2,2 -3,5 -4,8 2,1 5,2 8,2l2 -2 10 -6c2,-2 5,-4 9,-5l67 -39 8 -6c3,-2 6,-3 10,-3l99 6 47 13 9 7 3 12 1 14c3,1 6,2 9,3l2 -13 0 -5 9 2 8 6c3,3 5,6 6,10 -1,1 -3,3 -4,5l5 0c4,1 7,2 11,3l-5 11 11 0 0 -1 3 1 8 5 1 14 4 12 6 -5 5 1 -1 8c-1,3 -4,6 -6,8 -2,3 -4,7 -6,10l8 7 1 15 -2 13c-3,-1 -4,-4 -5,-7l-9 -22 1 -9 -1 -3c-2,3 -3,6 -4,10l3 57 6 10 -9 5c0,4 -1,7 -3,11l-6 10 -2 8 2 2c1,3 3,6 6,9 3,-2 6,-4 8,-7 2,-3 5,-6 8,-8 3,1 6,4 7,8 0,4 1,8 2,12l29 1c3,-2 7,-4 10,-5l-1 13c-1,3 -2,7 -4,12l-1 13c1,3 3,6 5,9l3 29 1 5 -6 1 -2 -1c-3,-2 -6,-4 -9,-6l-2 -9 3 -2c2,-2 3,-5 3,-8l-6 -10 4 -11 1 -6 -1 -2 -2 -2 -8 -7c-4,-1 -8,-2 -12,-3l-3 2 2 8c3,3 4,6 4,11 -1,3 -1,7 -2,10l6 10 3 6 -5 1c-3,1 -5,2 -7,4l4 11c0,4 -1,7 -3,11l3 36 -2 3 -5 2 3 5 7 7c4,-1 7,-2 11,-4 2,-2 4,-5 6,-8l2 -7 -3 -3 -5 -1c1,-2 2,-4 3,-6l3 -2 -2 -21c4,0 7,1 11,3 2,4 3,8 3,13 -1,3 -3,6 -4,10l4 87c-1,3 -3,5 -8,6l-5 1c0,2 2,3 4,4 4,1 7,3 11,5l1 30c-1,4 -2,8 -4,12l-7 1 1 5 6 9 -4 83 -10 50 -4 11 -3 12 -15 30 -25 36 -16 14c-2,2 -5,4 -8,7 -2,2 -5,4 -8,6l-39 22 -71 19c-3,0 -6,-1 -9,-4l-6 -8c-3,-2 -5,-4 -8,-7 -3,-2 -7,-3 -11,-5l-9 -5c-4,-1 -7,-2 -11,-2 2,3 4,5 7,7 3,3 5,6 9,8 3,1 6,2 10,4 3,1 6,3 9,5 -2,2 -6,4 -10,5l-21 -5 -3 1c-1,4 -3,6 -7,8l-52 3 -3 -2 -6 -10c-1,-3 -3,-7 -5,-10l-12 -2 -11 -5c-3,2 -6,4 -9,7l-12 1 -9 -1 0 4 -1 4 -7 -3 -2 -3 -9 1c-3,0 -6,-1 -9,-2l-31 -44c-2,-3 -5,-5 -8,-7 -1,3 -3,6 -4,10l-1 14c2,2 5,4 9,6l10 5c2,3 5,5 7,8l4 11c-2,2 -5,4 -8,5 -3,-1 -6,-3 -8,-6l-7 -10c-3,2 -6,4 -8,7l3 9c-2,2 -4,3 -7,3l-3 -2c-3,-2 -5,-4 -7,-8l-2 -43 3 -11c1,-4 3,-7 5,-11l11 -3 1 -3 -3 -23 -6 -7c-1,4 -2,8 -2,12 1,3 2,6 4,10l0 8 -5 2c-3,-2 -5,-5 -6,-9l-1 -29 1 -14c0,-4 2,-5 5,-5l3 3 2 -5c-3,-2 -6,-3 -9,-3l0 -29 0 -13 4 -13 -4 -10 -2 -14 -2 -87 2 -43 2 -12c0,-4 0,-8 2,-12l10 1 3 -1c0,-2 -2,-3 -5,-4 -3,-2 -5,-5 -7,-8l-3 -12c0,-4 0,-8 2,-13l-3 -20c0,-1 1,-2 3,-2 2,3 4,6 6,9l4 11 17 3c-1,-2 -3,-4 -5,-6 3,-3 5,-5 8,-8 3,-1 7,-3 10,-5l5 -8c0,-5 -2,-6 -6,-7 -3,2 -5,5 -8,8 -2,2 -4,5 -7,7 -4,-2 -6,-5 -8,-8 -3,-2 -6,-4 -10,-5l-9 0 0 -6c3,-2 6,-4 10,-5l61 -8c2,0 3,1 4,2l-7 9c-2,3 -4,6 -5,9l38 -5c3,1 5,2 8,4l10 6c3,2 5,4 7,8l-4 20 1 2 5 0c3,-2 5,-4 8,-7 -2,-3 -3,-6 -4,-10 2,-3 5,-5 9,-6 3,2 5,6 5,10l0 30 -2 14 -2 6 3 2 2 14c0,3 -2,7 -4,10 -2,3 -3,5 -4,9 3,-2 6,-4 10,-4l-4 41c0,4 0,9 -2,14l-6 1 0 -9 3 -11 2 -4 -3 -6 -1 -10 2 -3 -8 -6c-3,-2 -5,-5 -6,-8l-1 -12c1,-2 3,-5 4,-8l-2 -2 1 -1c0,-3 0,-6 1,-9l-1 -13 -11 19 -3 12 -5 9c1,4 2,8 2,13 -3,-1 -7,-2 -10,-3 0,3 1,7 3,11l11 18c2,-2 4,-4 6,-7l0 13 -5 25 -8 -1 -3 2 -2 14 0 28 1 0 0 16 -9 3 -1 -3 -2 -13 -11 -3 -1 13 3 12 2 3 -3 6c1,4 3,7 6,10l6 8 -3 11 0 9 -1 2 1 1 6 9 4 12 22 6 10 -6 6 -9 2 -12c0,-4 -1,-7 -2,-11 3,1 6,3 8,6 2,3 4,6 7,9l43 1 8 1 2 -1 17 -1c4,-1 6,-4 8,-7 2,-3 5,-6 8,-8l13 -2 97 7 26 4 6 0 -2 -5c-2,-3 -5,-6 -8,-9l-12 -2 -23 2 -28 -6 -57 -3c1,-4 2,-8 4,-12l8 -21 3 -41 0 -16 1 -13 0 -16 2 -12c1,-3 2,-6 4,-8 1,4 2,7 4,11 3,-1 5,-3 8,-4 1,-4 2,-7 2,-11l-5 -9 -12 -3c-2,-3 -3,-7 -5,-11l-2 -12 -1 -60 5 -39 3 -13c0,-3 0,-6 -2,-10l-4 -12 1 -13c2,-3 5,-6 8,-9l19 -10c3,-2 6,-4 9,-6l3 -11 -14 2 -22 9c-1,-2 -3,-5 -4,-9l-3 -41 -6 -24c-2,-3 -4,-7 -6,-10 -3,-2 -5,-5 -7,-9l-3 -11 -8 -7c1,-3 3,-7 4,-11l-7 -5 -14 -1c-3,1 -6,3 -8,6l-35 6 -2 -3 -2 -13c-1,-1 -2,-2 -4,-3l-2 6c-1,3 -2,7 -4,11l-9 6 -4 11c-1,3 -1,7 -2,12l1 28 2 14 0 16 -2 12 -6 9c-2,3 -4,6 -5,10l-1 24 -12 2 6 -47 -1 -15c-4,0 -6,-2 -7,-6 -1,-2 -2,-4 -5,-5l-4 75 1 13c-1,4 -4,7 -8,8l-88 16 -13 2 -3 -12 -1 -89 1 -13 0 -16 3 -27c0,-4 0,-8 2,-12l10 -6 11 -3 16 0c1,-3 2,-8 2,-12l-9 -1 -26 7c-3,-2 -5,-4 -6,-7l-1 -15c3,-1 7,-3 11,-4l13 -1c-1,-3 -3,-5 -6,-7l-13 -2 -5 1 0 -32 16 1 3 -2c0,-3 -2,-6 -5,-9l-11 -3c-2,-4 -3,-8 -3,-13l-2 -38 1 -3 1 -14c1,-3 3,-6 7,-8l7 8c3,0 6,-2 10,-4 2,-2 6,-4 10,-5l43 -1 0 -1zm164 21c-1,4 -2,8 -3,13l13 -3c2,-2 3,-5 4,-8l-14 -2zm62 9c0,4 1,8 3,11l-68 41c-4,3 -6,8 -6,15l15 -5 38 -24 12 -9 28 -13 1 -6 -1 -4 -8 -1c-4,-2 -9,-4 -14,-5zm32 22l1 6 5 1 2 -1c-1,-4 -3,-6 -8,-6zm32 19c-3,1 -7,2 -11,5l0 14 2 13c0,4 1,8 2,12l2 13 4 11 12 1 6 -8c0,-3 -1,-7 -3,-11l-9 -5 -9 -7c1,-3 3,-7 5,-10l15 0 0 -15c0,-3 -1,-7 -3,-10l-13 -3zm4 11c1,1 1,3 1,5l-4 2c-1,-1 -2,-3 -3,-6l4 0 2 -1zm-303 7l-7 9 3 4c5,3 10,5 17,5l6 -1c-1,-4 -2,-8 -3,-12 -4,-2 -10,-4 -16,-5zm267 2l0 6c3,-1 5,-3 6,-6l-6 0zm-287 2l-1 7 6 1 3 -4 -1 -3 -7 -1zm270 2c-1,3 -3,5 -4,9l7 -1c2,-2 3,-4 4,-8l-7 0zm-16 9l0 7c3,-1 5,-2 7,-4l-7 -3zm-67 2l-2 6 4 -1 -2 -5zm-128 4l-1 9 2 2 12 -2 2 -7 -2 -2 -13 0zm297 0c1,1 3,2 5,2l-5 -2zm-263 11c-1,1 -2,3 -3,6l3 2 2 -1 2 0c2,-2 3,-5 4,-7l-8 0zm298 2c5,2 8,6 10,12l5 16c1,4 3,10 4,16l2 15 -1 3c-5,0 -10,-1 -16,-3 -1,-6 -2,-12 -3,-19l-1 -40zm-210 3c-3,2 -5,5 -5,9l2 6 5 -2c3,-2 5,-4 7,-8 -2,-2 -6,-4 -9,-5zm-21 2c0,3 2,5 4,6 0,-3 -2,-5 -4,-6zm125 0l1 10 2 1 3 -1 0 -9 -6 -1zm-303 1c0,3 1,7 3,10l13 -1c-1,-2 -3,-4 -6,-6l-10 -3zm74 1c-2,3 -4,6 -5,9l6 -1c2,-2 3,-5 4,-8l-5 0zm-29 11c-3,1 -5,2 -7,4l3 5c-2,0 -4,1 -6,2 -1,1 -2,4 -3,6l3 2c3,-1 7,-2 10,-4 3,-1 8,-3 12,-3 3,-1 6,-2 9,-4 -1,-3 -4,-6 -7,-8l-14 0zm227 11c-6,1 -13,3 -19,6 0,6 1,12 4,18 4,-4 8,-8 11,-13 4,-3 6,-7 8,-11l-4 0zm91 0c-4,2 -10,3 -16,5l-11 -3 -1 4c-1,6 -2,11 -5,17l0 6c2,-3 4,-6 5,-9l15 -1 3 1c3,3 7,6 11,9l1 -20c2,-3 3,-6 4,-9l-6 0zm-185 5l6 0 1 5 -2 1 -7 0 2 -6zm-115 9c-4,2 -8,5 -11,8 2,3 5,5 8,8l5 1 3 -2c0,-1 0,-3 -2,-4l-3 -11zm167 0l-13 1 1 5c2,4 5,7 10,8 4,-1 8,-3 12,-6 -1,-5 -5,-7 -10,-8zm-229 6l-1 10 3 1 2 -1 1 -10 -5 0zm393 -1l1 7 -1 2 0 4 -1 -1 -1 -9 2 -3zm-356 7l-5 1c1,2 4,3 6,4 2,-1 3,-3 4,-5l-5 0zm279 1c-2,3 -3,6 -4,9l0 7 7 -1c2,-2 3,-5 4,-9 -2,-3 -4,-5 -7,-6zm-341 5l1 7 7 -1c-1,-3 -4,-5 -8,-6zm289 0l-12 4 -9 6c-3,3 -5,6 -7,10l-1 6 9 0 7 -8c3,-2 6,-4 9,-7 4,-1 7,-2 11,-5l1 -6 -8 0zm15 2l0 4 3 -3 -3 -1zm-226 5l-1 8 7 1 1 -9 -7 0zm310 0c-5,2 -10,5 -14,9l-2 12 6 -1c4,-2 9,-5 12,-9l5 -11 -7 0zm-387 7c0,3 1,6 2,10l0 -8c0,-1 -1,-2 -2,-2zm321 4c-4,2 -7,4 -10,8l-10 -2 -4 1c-1,4 -2,8 -2,12l6 11c3,-2 5,-4 7,-7 3,-4 7,-5 13,-6 4,-1 7,-4 7,-9 -1,-3 -4,-6 -7,-8zm-39 3c-1,4 -3,8 -6,11 1,5 3,8 6,12l5 0 0 -23 -5 0zm172 7l7 0c0,4 0,8 -2,12l-7 -6 2 -6zm-93 5l-9 49 1 3 12 -5c4,-2 8,-5 12,-8 1,-4 3,-8 3,-13l-3 -1 -5 0 -1 -14c-1,-5 -5,-8 -10,-11zm-95 18c1,2 3,3 6,3l-6 -3zm-200 8c-3,2 -5,5 -8,8 1,3 3,7 5,10 3,-2 5,-5 8,-8l0 -10 -5 0zm222 11c1,2 3,4 6,5 -1,-2 -3,-4 -6,-5zm-248 2c-1,3 -3,6 -4,9l4 0 4 -8 -4 -1zm29 13c0,2 2,3 4,5 -1,-3 -2,-4 -4,-5zm-63 8c-2,2 -3,4 -4,7l6 -1c2,-1 3,-3 4,-6l-6 0zm411 2l-31 8 -26 12c-4,2 -7,5 -10,9l-14 5c-4,1 -8,4 -12,7l1 11 4 1 14 -6c4,-2 7,-5 11,-7l24 -15 15 -4c4,-1 9,-2 13,-3 4,-3 7,-5 12,-8 1,-3 2,-6 2,-10l-3 0zm-329 1c2,3 4,5 7,7l1 -6 -8 -1zm0 11l0 10 6 0c-1,-3 -3,-7 -6,-10zm327 11l-3 19 -4 16 -6 15 -9 11c-3,4 -5,9 -7,14 2,4 5,8 10,11l-2 39c4,0 7,-3 8,-7l2 -19c2,-4 5,-8 8,-13l0 -11 3 -23 1 -3c0,-5 1,-12 2,-19l3 -29 -6 -1zm-380 9c1,2 3,3 5,3 -1,-1 -3,-2 -5,-3zm261 9c0,3 1,7 3,11 0,-4 -1,-7 -3,-11zm89 9c3,3 7,5 12,5l0 -5 -12 0zm-271 5l2 5 -34 11 -3 -1 -3 -5 15 -6 23 -4zm177 4l-14 10c-2,2 -3,5 -3,9l7 -1 16 -7c1,-3 2,-6 2,-9l-8 -2zm37 10l0 9 3 -1 1 -8 -4 0zm26 1c2,2 4,3 6,3 -1,-2 -3,-3 -6,-3zm-218 7c4,2 6,5 6,9 -4,-1 -6,-5 -6,-9zm163 7l2 18 4 -1 1 -11 -1 -5 -6 -1zm66 6l-5 10 -6 -3c-6,-2 -12,-3 -20,-3l-5 1c1,4 2,7 4,11 5,3 10,5 17,6 6,2 10,5 14,10l3 3 8 -2 -2 -3 -2 -9 1 -7 1 -3 1 -11 -9 0zm-316 11l-1 11 1 3 0 6 9 -1 1 -11 -1 -3c-3,-2 -6,-4 -9,-5zm235 0l0 10 2 -1 -2 -9zm-216 2l1 15 3 12 1 8 -5 1c-3,-2 -5,-5 -7,-9 -1,-2 -4,-3 -8,-4l-11 5 0 16 4 11 6 10c3,0 7,-1 10,-2l11 -6c2,-2 4,-5 6,-8l0 -31c-2,-3 -4,-6 -5,-10 0,-4 -2,-7 -6,-8zm246 4c-1,2 -2,5 -3,8 3,2 7,3 11,4 1,-2 2,-3 3,-5l-3 -2c-2,-2 -4,-4 -8,-5zm38 12c-2,3 -5,5 -8,8 0,3 2,7 5,9 3,-1 6,-4 8,-7l0 -10 -5 0zm-32 9l0 7c2,-1 3,-3 4,-6l-4 -1zm53 13l1 3 1 -3 -2 0zm-75 1l-1 6 4 -1c-1,-2 -2,-3 -3,-5zm42 1c2,4 6,7 12,7l2 -7 -14 0zm-288 0c2,2 5,4 8,6 0,2 0,5 -2,7l-4 1c0,0 -1,-1 -2,-2l-1 -9 1 -3zm-28 8c1,2 3,4 6,4 -2,-2 -4,-3 -6,-4zm5 18c-3,3 -4,8 -4,13l6 27 6 11c1,-4 2,-8 2,-13l0 -16 -2 -14c-1,-4 -4,-7 -8,-8zm355 15l0 17 -1 3c0,5 2,10 4,15l0 -21 1 -14 -4 0zm-384 6l0 14c2,2 5,4 8,4l-1 -12c-2,-3 -4,-5 -7,-6zm348 0l0 8c1,0 1,-1 2,-2 0,-2 -1,-4 -2,-6zm-256 26c-1,3 -2,7 -3,12 3,3 6,6 10,8 1,0 2,-1 3,-3l-4 -6 -1 -11 -5 0zm-55 10c-1,4 -1,9 -2,14 3,2 6,3 10,4 1,-1 1,-2 2,-3l-2 -8c-2,-2 -4,-5 -8,-7zm301 2c-1,2 -3,4 -4,7 2,3 5,5 8,8 1,-4 2,-9 3,-14l-7 -1zm95 4l-2 7 7 2 3 -1 2 -7 -10 -1zm-38 7c-3,3 -6,5 -10,8l-8 8 -10 6 -2 6 2 1 5 -2 13 -3 12 -6 5 -11c-1,-3 -4,-6 -7,-7zm-51 7l0 5 8 -2 -8 -3zm-208 2c2,5 3,10 3,16l0 13 -2 -3 -6 -13c1,-4 3,-9 5,-13zm-91 4l-1 14c0,2 1,5 3,7l2 -12 -4 -9zm24 5c1,4 4,6 8,7 -1,-4 -4,-6 -8,-7zm38 0l14 8 2 8 -2 8c-1,5 -2,11 -3,18l1 11 6 -1 7 -12c1,-4 3,-7 7,-7l0 58 -6 2 -4 -15c-1,-4 -4,-7 -8,-7l-2 4c-4,0 -8,-1 -12,-3l-5 -2 4 -50 0 -18 1 -2zm-30 13l-7 1 -1 5 1 2 0 2c0,2 1,3 2,3l5 1 1 -11 0 -3 -1 0zm358 3l-2 9 9 -1 2 -8 -9 0zm-97 19l0 9 7 0 0 -9 -7 0zm104 7l0 6 3 -5 -3 -1zm-65 5l2 4 1 -4 -3 0zm-327 2l1 17c2,2 5,4 8,4l2 -10 -2 -3c-2,-4 -5,-6 -9,-8zm344 21c0,3 1,6 2,8l8 -2 2 -5 -12 -1zm48 3c0,3 0,6 2,9l1 -8 -3 -1zm-392 5c-2,1 -4,3 -5,5l6 0c1,3 3,7 6,10 2,-3 3,-6 3,-10 -3,-2 -6,-4 -10,-5zm324 5c-1,3 -2,7 -2,11 3,1 7,2 10,2 2,-3 3,-7 3,-11l-11 -2zm55 9c-2,5 -4,10 -8,15l-5 17c-3,5 -5,11 -7,17l-1 10c3,0 5,-1 8,-3l5 -16 8 -15c4,-3 7,-7 10,-13l-1 -12 -9 0zm-354 8l-7 2c0,2 0,4 2,6l6 -1 1 -6 -2 -1zm-45 9l0 5 4 -3 -4 -2zm94 3l7 0 1 5 -1 3c-4,-1 -6,-3 -7,-8zm109 9l0 12 11 0 0 -12 -11 0zm-202 5l2 13 13 -2 1 -9 -5 0 -11 -2zm161 4l-4 2c1,1 3,2 5,3l0 -4 -1 -1zm178 1c-2,4 -3,8 -5,13l0 7 8 3c1,-4 2,-8 2,-13 -1,-4 -3,-7 -5,-10zm-242 14l-7 10 -2 7 8 -1c3,-2 6,-5 9,-9l0 -7 -8 0zm58 10c1,4 1,8 2,13l7 -2 1 -7 -1 -2c-3,-2 -5,-2 -9,-2zm-49 11l0 10 5 -1 0 -8 -5 -1zm225 0l2 15 -3 2 -2 7 1 3 5 8 -4 8c1,4 3,9 4,14 3,-3 6,-7 8,-11l0 -15 -1 -3 -2 -18 0 -10 -8 0zm-324 3l-1 3 1 8 6 0 -2 -11 -4 0zm155 13l0 10 2 7 4 -2 1 -11 -1 -3 -6 -1zm-154 2c1,2 3,4 7,6 -1,-3 -3,-5 -7,-6zm346 3c1,4 3,6 8,7 0,-4 -3,-6 -8,-7zm-302 19l-1 7 3 -5c0,-1 -1,-2 -2,-2zm-46 3l-1 3 2 7 10 0 -1 -10 -10 0zm85 3l-2 5 4 0c0,-2 -1,-4 -2,-5zm49 1c-3,2 -5,5 -7,8 1,4 2,7 4,10l3 1 21 -3c3,-1 6,-3 10,-5 0,-4 -2,-6 -6,-8l-25 -3zm-26 4l-3 9c3,2 7,2 10,3l2 -12 -9 0zm-14 1l0 10 5 0c-1,-4 -2,-7 -5,-10zm150 22l1 10 9 -2 2 -6 -12 -2zm-123 9l0 3 2 -2 -2 -1zm10 3c0,4 2,7 4,11 3,2 7,3 11,3 3,-2 7,-3 11,-4 1,3 2,5 5,6l-4 -10c-2,-2 -5,-4 -9,-5 -2,2 -5,3 -8,3l-10 -4zm-20 8c-2,3 -3,6 -3,10 3,2 7,2 12,2 2,-3 3,-6 3,-10 -3,-1 -8,-2 -12,-2zm-136 12c5,1 8,4 10,9l-10 1 0 -10zm30 0c3,1 5,2 8,4l-6 2 -5 2c0,-3 2,-5 3,-8z"/>
   <path class="fil0" d="M2776 2841l12 0 0 9 -10 0 -2 -9zm51 0l16 0 3 1c2,2 4,5 4,8l-27 0 4 -9zm49 0c7,0 15,1 23,3 5,0 9,2 12,6l-9 1 -17 0 -5 1 -3 -1c-3,-2 -5,-4 -8,-7l7 -3zm47 0l14 0 3 1 2 9 -3 3 -12 -2 -5 -2 1 -9zm-115 3c3,0 5,2 8,4l-4 0 -6 2 2 -6zm-118 3l9 0 -2 7 -7 2 0 -9zm54 3l12 2c0,2 0,4 -2,6l-14 7c4,2 9,4 15,4l13 0 -1 -7c3,-2 8,-3 12,-4l6 0 -5 12c3,-1 5,-2 8,-4l1 -11 9 1c5,3 9,5 14,9l12 8c1,-5 3,-10 5,-16l20 -1c6,1 12,2 19,3l14 7 13 -8 20 1 18 5 13 7c2,3 3,7 4,11l-5 1 -1 11 5 4 7 15 3 17 0 16 3 2 5 16 2 19c2,5 4,9 6,14 2,5 4,10 5,17 2,4 3,10 4,17 -4,2 -8,3 -13,3l0 -6c0,-5 -1,-11 -3,-18l-6 -14 -3 -18 0 -12 -5 -3 -7 -2 -1 13 -4 8 6 2 1 16 -1 3c4,2 8,6 10,11 1,5 2,11 4,16 3,4 6,7 9,12l16 5 11 47 -4 -1 -17 -1 0 -4c3,-5 5,-10 6,-16 0,-5 -2,-10 -6,-16 -2,-3 -5,-7 -9,-10 -2,5 -5,9 -8,13 -5,1 -11,3 -17,5 -3,2 -5,4 -7,8l4 0 30 -3 4 1 1 3c-2,4 -3,7 -4,11 3,4 5,10 5,16l5 4 7 1 2 -1 10 -1 -2 9c-4,2 -10,4 -16,5 -1,0 -2,1 -2,2l2 6 5 2 13 1 -1 5c-1,5 -3,10 -4,15 3,3 7,7 12,10l4 11 -5 -1 -7 1c1,4 2,7 3,10 4,3 8,6 11,11l-5 15 8 35c2,4 5,8 9,11l7 3c-1,4 -2,7 -4,10 2,4 3,9 4,14 -2,6 -6,10 -13,10l5 4 10 0 0 11c1,6 3,11 6,16l7 14 17 67c1,6 1,11 3,18 0,5 1,11 3,18l2 19c2,4 3,10 4,17l6 16c1,4 3,10 4,17l7 34c1,5 2,11 3,18l1 20c0,5 -2,11 -5,16 -4,2 -10,4 -16,5l-6 -1 -2 12 1 10 17 -5 6 23 0 12 -1 9c-4,2 -10,4 -16,5l-19 -1c-5,-2 -10,-4 -16,-6l-1 6 1 2 -21 0 -3 -8 -10 -1 -1 5c-5,2 -11,4 -17,4l-43 0c-3,-1 -6,-2 -10,-3l-4 1 -21 0c-6,0 -12,-2 -18,-4l-3 -31 6 -2 13 -9 0 -13 -6 -2 -7 14 -10 -1 -9 -73c2,-2 4,-4 6,-6l-8 -12 -6 -14 -6 -36 -61 0c-4,-3 -7,-7 -9,-12l-7 -56 0 -6 15 0 -1 -10 -5 0 -4 7c-3,0 -6,-2 -8,-4l-4 -4 -3 10 7 74 -20 -1 -3 1 -15 1 -3 2 -15 91c0,6 -3,10 -9,12l-18 -3c-5,1 -9,4 -12,9l-13 8 -16 6c0,3 -1,6 -3,10l8 0c5,1 9,4 12,8l-1 11 -2 4 2 1c-2,2 -5,4 -8,5l-33 3 -6 0c-3,-3 -5,-7 -7,-13 -2,-4 -4,-9 -5,-15l-5 -66 -7 3 -2 -2 -8 -12 -12 -30 -3 -19 -6 -3 0 10 2 18c1,5 3,10 5,16 2,5 5,10 8,14l-3 8 10 23 4 16c2,5 3,11 4,18l1 15 -1 3c-2,5 -4,9 -8,14l-11 2 -8 -60 -1 -3c0,-5 -1,-11 -3,-17 -1,-4 -4,-7 -8,-8l1 5 2 39c1,5 2,11 4,17l4 9 -1 6c-2,5 -5,10 -8,14l-14 -1 -1 -5 0 -21c0,-5 -3,-10 -7,-14l-1 41 -3 2 -13 -3 -15 -6 -5 1 3 7c-3,1 -7,2 -12,2l-1 -7 0 -21 3 -18 7 -14 0 -9 3 -8c1,-5 3,-10 8,-15l5 16 1 -4 -2 -30 1 -3 0 -15 26 -128c1,-5 2,-11 4,-17l9 0 1 -11 0 -15 1 -5 1 -20c3,4 6,7 8,12 1,4 3,10 4,17 1,5 2,11 4,17 1,1 2,3 4,4 1,-2 3,-5 4,-8l7 -5 -4 -5 -7 -13c-2,-5 -3,-11 -5,-17l-2 -39c4,-4 7,-8 10,-13l0 -21 -4 -1 24 -146 12 2 10 -1 1 -5 -1 -2c-2,-3 -4,-7 -5,-12l4 -1c3,-4 5,-8 6,-14l19 -106 0 -21 -2 -16 11 -35 10 -12c4,3 8,5 13,6l20 0c2,-5 5,-8 11,-10l6 -2 -5 -6 -8 1c0,-3 2,-6 4,-9l14 -1 4 -2c4,0 9,-3 13,-7zm104 16c0,1 1,2 2,3 2,-1 3,-2 4,-3l-6 0zm-154 3l7 1c0,4 -2,6 -6,8 -2,-1 -4,-3 -6,-6l5 -3zm204 3c1,2 2,4 4,6 0,-2 -2,-4 -4,-6zm-101 4c1,4 2,7 4,9l4 1 8 -1c0,-2 -1,-5 -2,-8l-14 -1zm-48 8c2,5 5,9 9,13 4,2 9,2 14,3 -1,-4 -3,-8 -6,-12 -5,-2 -10,-3 -17,-4zm74 1c1,3 2,6 4,8 0,-3 -1,-5 -4,-8zm-39 17l0 5 10 -1c-3,-1 -7,-3 -10,-4zm42 14c1,3 2,6 4,8l2 -8 -6 0zm20 8l-2 8 6 -1 2 -7 -6 0zm-132 9l3 16c2,3 4,5 7,7l1 -17 0 -6 -11 0zm158 3c1,1 2,1 3,1l-3 -1zm18 5c2,6 6,9 12,10l1 -3 -2 -7 -11 0zm27 4c-2,1 -5,3 -6,6l8 5 7 8 11 -1c1,-3 2,-6 2,-10l-1 -5 -4 3c-3,0 -5,-1 -8,-3 -2,-1 -6,-3 -9,-3zm-199 32c0,5 3,8 8,9l2 -8 -10 -1zm184 15c1,4 1,8 2,12l10 -2 1 -3 -1 -7 -12 0zm-268 6l5 0 0 7 -5 0 0 -7zm62 12l-6 0 1 17 -3 11c-2,-1 -5,-3 -8,-5 -1,-1 -4,-3 -6,-6l-9 2 9 14c5,4 10,6 17,7 0,-6 3,-11 8,-16l10 -1 -2 -11c-2,-5 -6,-9 -11,-12zm-26 1l0 3 1 0 4 -1 -5 -2zm128 7l-30 271 0 15c1,3 4,6 6,9l3 27c3,2 6,3 9,4l9 -5c3,-2 5,-3 6,-6l-9 -6c-3,-1 -6,-4 -8,-7 1,-3 4,-6 7,-8 4,0 7,0 11,2 1,3 4,6 7,8 3,1 7,2 12,2l5 -10 23 -8c2,-1 5,-3 9,-4 3,2 6,4 10,5 4,0 6,-3 6,-8l-18 -10 -13 -13 -1 4 0 4c-3,0 -5,-1 -7,-4l-29 -256c0,-4 -3,-6 -8,-6zm-171 13l4 7 -3 3 -1 -10zm249 3c2,2 4,2 6,3l-6 -3zm-166 7l0 14c0,3 2,5 4,7l9 5c3,2 5,3 9,4l0 -3 -1 -7 -6 -9 -7 -7 -8 -4zm126 16c0,3 1,4 3,6 0,-2 -1,-4 -3,-6zm-221 21l5 1c0,5 -1,10 -3,15 -1,0 -2,-1 -3,-2l1 -14zm265 6l0 10 9 -1c-2,-4 -6,-7 -9,-9zm58 3l-13 4 -19 13c1,2 2,3 4,3l35 -12 0 -8 -7 0zm-77 17c2,2 4,3 6,3 -2,-1 -4,-2 -6,-3zm35 4l-14 5c-2,2 -4,5 -5,8l5 0c3,0 6,1 9,2l3 -3c1,-3 2,-7 2,-12zm-270 9c-5,0 -8,2 -11,6l-1 8 0 4 3 0 0 -2 9 -8 4 -8 -4 0zm210 2c-2,1 -3,2 -3,4 1,-1 2,-2 3,-4zm30 4c-4,1 -7,3 -8,7l4 -1c3,-1 6,-3 8,-6l-4 0zm-250 18l-11 17 5 1 10 -9 1 -7 -5 -2zm126 11l-5 2c0,4 1,7 3,10l4 -3c0,-3 -1,-6 -2,-9zm150 10c0,3 1,6 2,10l0 -8c0,-1 -1,-2 -2,-2zm-139 2l-2 8 4 -1c2,-2 3,-4 4,-7l-6 0zm-140 8c-2,1 -3,2 -3,4l5 2 2 -5 -4 -1zm150 9l-10 6 -1 5 7 1c2,-2 5,-4 7,-6l2 -6 -5 0zm146 4l-3 11 -11 3c-2,2 -4,5 -5,8l-2 12c1,1 3,2 5,2l13 -1 5 9c1,3 3,5 6,7l5 -1 -2 -6c-2,-2 -4,-4 -6,-8l6 -7 -7 -7 -2 -7 4 -1 9 -4 -6 -7 -9 -3zm-243 5l-1 5 2 4 5 -1 1 -8 -7 0zm-59 10c1,6 5,9 11,11 0,-4 -1,-7 -2,-11l-9 0zm83 19l-2 14c0,2 2,5 4,7 1,-4 2,-8 3,-13 -1,-3 -2,-6 -5,-8zm-90 1l5 13c-1,1 -3,2 -4,4l-1 13 6 -1c1,-6 4,-13 7,-20 -1,-6 -6,-9 -13,-9zm66 8l-8 3c2,3 3,6 6,9l11 12 6 0c0,-4 -1,-8 -4,-12 -3,-4 -6,-8 -11,-12zm24 24l-3 13 -2 27c0,4 0,8 2,12 1,-3 1,-7 2,-12l2 -27 -1 -13zm247 10l-1 6c1,1 2,2 4,2 0,-3 -1,-6 -3,-8zm80 0c1,2 3,4 5,5 -1,-3 -2,-4 -5,-5zm-157 8c0,5 3,10 8,14l15 6c-1,-7 -5,-10 -12,-11 -3,-3 -6,-6 -11,-9zm-266 17l-5 1 2 13c1,-4 2,-9 3,-14zm64 1c1,4 1,8 3,12l1 -10c-1,-1 -2,-2 -4,-2zm237 1l-7 2 1 12 4 20 5 1 0 -17 -3 -18zm-58 1c2,0 5,1 8,1l-1 7c-4,-1 -6,-4 -7,-8zm17 24l4 10c2,2 5,3 9,3 0,-3 -1,-7 -2,-11l-11 -2zm-169 5l-3 36 5 -1 2 -15 0 -3c0,-6 -2,-11 -4,-17zm195 0l-2 7c1,1 2,2 4,2 0,-3 -1,-6 -2,-9zm-133 1l-1 13c2,1 4,2 7,3l2 -12c-2,-2 -4,-3 -8,-4zm154 1l2 8 10 -1c-2,-4 -6,-7 -12,-7zm-290 3c-2,3 -3,6 -4,10l5 -1 3 -9 -4 0zm234 7c-1,5 -2,9 -3,14l5 -1c2,-3 3,-7 3,-10l-5 -3zm42 3l3 15c1,4 3,7 7,8l1 -12 -2 -4c-2,-3 -5,-5 -9,-7zm-81 6l-3 6 2 2 1 3 7 -2c1,-2 2,-6 3,-9l-10 0zm180 4l0 5c2,-1 4,-2 6,-4l-6 -1zm-378 1c0,2 1,3 3,3 1,0 2,-1 4,-3l-7 0zm326 4c0,4 2,8 4,12l8 5 -3 -13c-3,-2 -6,-3 -9,-4zm-149 2c-5,4 -7,9 -8,16 3,5 5,10 7,17 3,-5 4,-10 5,-15 0,-6 -2,-11 -4,-18zm214 10c-2,2 -3,4 -4,7 3,-2 4,-4 4,-7zm-315 11c0,3 1,7 3,9 0,-3 -1,-6 -3,-9zm-87 3c-4,3 -9,6 -14,7 0,6 1,13 3,19 4,-2 8,-5 11,-9 1,-4 2,-9 2,-15 0,-1 -1,-1 -2,-2zm419 0c-4,1 -8,4 -10,7l0 5 11 -1 2 -7 7 2 0 -6 -10 0zm-44 6l-18 5 -80 55c-4,1 -7,4 -7,8 5,-1 11,-3 17,-6 4,-2 9,-5 13,-8l28 -17 17 -6c4,-4 7,-7 10,-12l13 -9c4,-2 7,-5 7,-10zm14 0l1 12 7 -2 2 -10 -10 0zm-304 7l0 17 -1 3 -2 78 -1 9 0 45 4 -1 0 -16 2 -3 0 -20 2 -38 0 -37 1 -2 0 -34 -5 -1zm-74 6l0 14 8 0c-1,-5 -3,-10 -8,-14zm285 4c0,2 1,4 3,5 0,-2 -1,-3 -3,-5zm-148 6l-4 3 0 6 2 1 3 -2 0 -8 -1 0zm-155 1l-1 14 1 3 7 12 7 30 4 61 6 -3 2 -35 -2 -36c-1,-4 -3,-9 -6,-13l-1 -14c-1,-4 -3,-8 -6,-12 -3,-2 -7,-5 -11,-7zm384 3l-1 6 2 -4 0 -2 -1 0zm68 7c2,3 4,6 7,8 0,-4 -2,-7 -7,-8zm-295 10l0 12 13 -1c-2,-5 -7,-9 -13,-11zm219 0c-4,4 -8,7 -15,9l3 13 4 -1c3,-4 7,-7 12,-10l3 -11 -7 0zm77 6c-4,0 -7,2 -9,6 3,1 7,2 10,2 4,-1 7,-3 10,-5 -4,-2 -7,-3 -11,-3zm-56 2c2,1 5,3 8,3l-8 -3zm-182 6c0,2 1,4 3,5 -1,-2 -2,-4 -3,-5zm10 0c1,2 2,4 4,6 0,-2 -2,-5 -4,-6zm115 0c-3,1 -6,4 -8,7 1,3 2,5 4,7 3,-1 5,-4 7,-7l1 -7 -4 0zm-30 6l-5 10 6 -3 9 -6 -10 -1zm81 6l0 10c0,1 0,2 2,3 0,-4 -1,-8 -2,-13zm-61 7c-1,3 -2,6 -2,10l3 0 2 -8c0,-1 -1,-2 -3,-2zm21 2l1 10 2 1 5 -1 2 -1c0,-6 -3,-9 -10,-9zm-47 12l1 28 8 -1c0,-4 -1,-9 -3,-14l-6 -13zm93 5l-1 11 4 0c-1,-3 -2,-7 -3,-11zm-452 2l0 3 2 -2 -2 -1zm416 0l0 15 7 -3 3 -2c4,2 10,3 15,4 0,-4 -3,-8 -8,-11l-17 -3zm-35 3l-4 1c1,2 2,4 4,7 3,3 6,5 10,6l2 -7 -1 -3c-3,-2 -7,-3 -11,-4zm76 6c1,2 2,4 4,6 -1,-2 -2,-4 -4,-6zm-56 4l-2 5 4 1 -2 -6zm73 3c0,4 2,7 5,10l0 -10 -5 0zm-477 5l-1 14 1 12 5 11 0 28 -6 8c3,2 5,4 9,5l4 11 5 0 -7 -71 0 -15c-3,-1 -6,-2 -10,-3zm417 0l-2 6 4 0 3 -5 -5 -1zm22 0l-2 5 2 9 0 3c0,6 -3,9 -10,10l-7 2c0,2 1,5 3,8 5,0 11,1 17,3 4,2 7,3 12,4l-8 -18 -1 -11 3 -6 1 -8 -10 -1zm-93 8c1,1 2,3 4,5 -1,-2 -2,-4 -4,-5zm22 5l-14 2 0 9 5 2 4 13 6 9c1,2 2,2 3,2l6 -4c0,-2 -1,-5 -3,-7 -2,-4 -3,-8 -5,-13l-2 -13zm-235 4c0,4 1,7 2,10l1 -6 -1 -2c0,-1 -1,-1 -2,-2zm354 7l1 3 1 -3 -2 0zm-99 11c1,1 3,2 5,3 -1,-2 -3,-3 -5,-3zm11 7l6 3c-2,-1 -4,-2 -6,-3zm-6 2l-3 8c1,1 2,2 3,2l2 -8c0,-1 0,-1 -2,-2zm138 8l0 5c2,-1 4,-3 5,-5l-5 0zm-411 7l1 11 8 0 0 -11 -9 0zm328 0l1 14c2,2 5,4 9,5l-3 -12c-2,-3 -4,-5 -7,-7zm-84 1l1 10 5 0 0 -10 -6 0zm36 7l-4 7 3 -1 3 -4c-1,-1 -1,-2 -2,-2zm35 6c0,3 1,5 3,8l1 -8 -4 0zm104 4l-8 6 -3 5c1,0 2,1 4,1 3,0 6,-1 9,-3l1 -8 -3 -1zm-549 1c-2,3 -4,5 -6,9l7 6 5 0 -1 -7c-1,-3 -3,-5 -5,-8zm418 3c2,4 6,6 11,7 -3,-3 -7,-6 -11,-7zm-42 2c1,2 2,4 4,6 0,-2 -2,-4 -4,-6zm152 7c-1,2 -1,5 -2,7l6 0 2 -7 -6 0zm-22 11c-3,2 -6,5 -9,8l6 2c4,-1 7,-2 10,-5 -2,-2 -5,-3 -7,-5zm-502 7l-1 14c0,4 2,9 3,13l0 -15c0,-4 0,-8 -2,-12zm567 -1c4,1 7,3 10,6l5 11 0 16c0,4 -1,8 -3,12 -4,0 -7,-3 -8,-7l0 -15 -2 -14c-1,-3 -2,-6 -2,-9zm-94 9c-3,1 -6,3 -9,5 0,4 2,6 6,6 3,0 7,-2 10,-4 0,-4 -2,-6 -7,-7zm-490 1c1,2 2,3 5,3 -2,-1 -3,-2 -5,-3zm432 10l2 5 1 -5 -3 0zm95 7l0 5 6 -1c-1,-2 -4,-3 -6,-4zm-133 6c0,4 2,7 6,7l2 -7 -8 0zm165 5l-3 3c2,3 4,4 7,6 0,-3 -1,-6 -4,-9zm-118 2c1,3 3,6 6,9 4,1 8,1 13,2 -1,-4 -2,-7 -5,-10l-14 -1z"/>
   <path class="fil0" d="M3454 2847l80 0 3 1 45 1c6,0 11,2 16,6 4,1 7,2 11,3l2 -5c3,-2 7,-3 11,-4l-1 71c-2,5 -7,7 -14,8l-5 3c0,3 1,6 3,9l17 -1 -1 32 -10 -1 -4 1 -9 1c0,2 1,5 3,7l20 2 0 16 -3 9 -9 1 -27 -8c-2,1 -5,2 -7,4l4 7 -74 2c-6,0 -12,-1 -19,-2 -6,0 -12,-2 -18,-4 -5,-2 -8,-6 -9,-12 -1,-3 -3,-5 -6,-7l-1 8c-2,4 -5,8 -9,12l-15 -1 -2 -2 -18 -9 -11 1 -3 0 -10 2c1,2 1,5 2,7l4 9 -7 5 -6 14c-3,4 -6,9 -8,14l-9 34c-1,6 -1,12 -2,20l-2 20c-1,1 -2,1 -4,2l-26 -10 -11 -1 2 9c4,3 8,5 13,7 5,1 10,4 15,6 4,4 7,8 8,15l0 17 -4 13 2 6 4 40 0 13 1 4 -1 74 -8 2 -3 -2 -10 11 -2 14 11 6 4 -6 1 -10 5 6c2,5 3,11 4,17l1 85c1,4 2,10 4,16l8 15c-5,2 -11,4 -18,4l-81 5 -18 4 -12 9 0 4 57 -3c5,-2 11,-3 19,-3l38 -5 16 0 2 2 3 0 13 3 0 6c4,4 9,6 15,6l75 4 2 1 1 4c3,3 6,8 10,12 5,0 11,-1 18,-2 6,0 10,-3 12,-7l1 -7 95 -2c1,0 2,1 3,2 -3,3 -7,6 -9,10l1 4 7 -5c1,6 2,12 2,19l0 37 -5 2c-5,-2 -7,-5 -8,-12l5 0 0 -11 1 -7c-5,1 -8,5 -10,10l-2 19 13 7c2,4 4,10 6,16l0 43c-1,5 -3,10 -7,14l-11 1 -1 -6c0,-1 1,-2 2,-2l1 -7c-2,-2 -4,-3 -7,-3l-7 13 -4 2 -12 -1 -1 -3c1,-5 4,-10 7,-15 4,-3 8,-5 13,-8 5,-2 9,-5 11,-10l-1 -16 -2 -3 -8 -3 -4 5 -15 28 -9 13 -13 9 -1 -4 -12 3 -2 5c-2,-3 -4,-7 -5,-10l-18 3c-3,-4 -6,-7 -11,-8l-16 5c-5,2 -10,4 -14,8 -2,5 -5,9 -9,13l-7 2c-3,-1 -7,-1 -11,-2l-36 -2 -3 -3 -1 -5 -12 3c-5,1 -11,1 -17,1l-3 -1 -4 -4 25 -9 11 -12c0,-1 -1,-2 -3,-3l-22 9 -11 10 -10 13 -4 0 -11 -2 -3 0 -52 -13 -30 -14 -37 -27 -30 -35 -21 -44 -11 -32 -3 -19c-1,-6 -2,-12 -3,-19l-6 -80 7 -15 -8 -10 -1 -21 1 -16 2 -3c5,0 9,-2 11,-6l-12 -2 0 -46 1 -3 0 -17 1 -3 1 -21c-1,-5 -2,-11 -3,-16 1,-6 5,-10 10,-12l7 1c-2,3 -4,6 -6,10 0,5 2,10 7,15 -3,3 -6,6 -9,11 3,4 6,8 11,11l10 5 1 -4 8 -7 -3 -3 -4 -1 3 -35c-2,-5 -3,-10 -3,-16l6 -11 -4 -2 -10 -2 3 -7 8 -13 -4 -5c0,-3 1,-7 2,-10 2,-4 3,-8 3,-13l-5 0 -14 7c-3,5 -4,10 -6,16l6 2c-1,4 -2,8 -4,12l-4 9c1,2 2,3 3,4l5 1c-1,4 -3,8 -7,12l-4 5c-2,0 -5,-1 -7,-3l1 -21c1,-6 3,-11 5,-16l-2 -19c-2,-6 -3,-12 -3,-19l1 -4 11 5 15 0 3 -1 3 0 9 -1 0 -12c0,-2 0,-5 1,-8l8 4 10 12c5,-3 8,-6 10,-12 -2,-5 -4,-10 -6,-16 -2,-5 -4,-9 -7,-14l-7 -3 7 -26 3 -41 -2 -11 -3 4 1 14 -3 2c-2,5 -4,11 -5,17l-1 6c-3,-2 -5,-5 -7,-8l1 -21 7 -4 -1 -8 -9 -13 -1 -8 6 -2 0 5c3,-1 5,-3 7,-6l1 -16 2 -3c5,-3 11,-4 18,-4 0,-5 -1,-9 -2,-13l19 -3 -7 -3 3 -9 20 -10 1 14 2 5c4,0 7,-1 11,-3l-1 -15 1 -3 8 -13 30 -14 121 -8c5,2 9,5 14,8l38 26 14 7c4,3 9,5 15,7 5,1 10,5 13,9l18 3c-2,-4 -5,-7 -8,-11l-54 -34 -14 -6c-5,-2 -9,-6 -11,-11zm-85 21l-4 2c0,2 1,4 3,7 3,1 7,3 11,3 2,-3 3,-6 3,-9l-13 -3zm-58 9c-4,3 -8,5 -14,6l-1 9 7 4 76 48 11 -2 -1 -7c-3,-4 -7,-7 -11,-10l-26 -15 -9 -11 -16 -5c-5,-2 -8,-5 -9,-9 0,-2 1,-5 1,-8l-8 0zm-33 22l0 7 7 -2 1 -5 -8 0zm-23 19l-13 3c-1,3 -2,7 -2,12l-2 9 0 4 2 0 13 1c1,3 2,7 2,11l-7 7 -12 5 -1 3 2 7 7 8 12 -2 4 -11 6 -39 -2 -13c-2,-2 -5,-4 -9,-5zm-7 11c4,0 6,2 7,6 -3,0 -6,-2 -7,-6zm301 7c-5,1 -10,4 -13,9l-2 9 12 0c5,-2 9,-4 14,-7 -2,-5 -6,-8 -11,-11zm-269 1l0 7 6 -2c-1,-2 -3,-4 -6,-5zm288 2l-2 7 1 2 5 -1 1 -8 -5 0zm-271 2l-1 8 10 2c4,3 9,5 14,7 -1,-5 -5,-8 -11,-9 -3,-3 -8,-6 -12,-8zm88 11c0,2 1,4 4,6l-4 -6zm-173 5l1 3c2,-1 4,-2 6,-4l-6 0 -1 1zm288 0c-1,2 -2,5 -2,8l2 3 9 1 4 -1 2 -8 -1 -3 -14 0zm-27 11l1 7 9 -1c-2,-4 -5,-6 -10,-6zm-295 2l4 0 -2 57 -14 6c-2,0 -3,-1 -4,-2l-1 -6 1 -2 0 -7 10 -32 6 -14zm210 3c-2,3 -3,6 -4,10 3,2 6,4 10,4 2,-3 3,-6 4,-10 -3,-2 -7,-4 -10,-4zm-106 3l0 10 5 -2c1,-2 1,-5 1,-8l-6 0zm126 0c1,3 3,4 5,5 0,-3 -1,-5 -5,-5zm177 0l-10 5c1,2 4,4 6,5l10 0 0 -4 1 -6 -7 0zm-72 1l1 9c2,0 5,-1 8,-1 -1,-4 -4,-7 -9,-8zm-65 3c0,2 2,3 4,4 -1,-1 -2,-3 -4,-4zm79 8l-2 9c0,1 1,1 2,2l13 1c3,1 6,3 9,5 3,-1 6,-2 9,-4l-8 -5 5 -8 -28 0zm-304 11l3 16 0 13 6 -1c2,-5 6,-8 12,-11l13 2 0 6c2,-2 3,-4 3,-6l-5 -17 -7 3 -8 -1c-5,-2 -11,-3 -17,-4zm92 0c2,5 5,10 10,14 3,5 7,8 13,10l0 -18c0,-1 0,-2 -2,-3l-21 -3zm94 5l6 1 1 5 -10 0c1,-2 2,-4 3,-6zm-56 9l-2 8 1 2 3 3 11 2 4 -2 4 -12 -21 -1zm-156 5l3 3 -2 9 -2 -3 1 -9zm75 8c-2,3 -4,6 -4,10 1,3 4,5 7,7 2,-4 3,-7 4,-11 -1,-3 -3,-6 -7,-6zm47 5c1,4 4,7 7,9l9 7 9 8 3 2 9 -1c0,-4 -1,-8 -3,-11l-12 -5c-2,-3 -5,-5 -8,-8l-14 -1zm-11 2l2 3c0,-1 -1,-2 -2,-3zm-87 5c1,5 3,10 7,15 4,4 9,6 16,6 -1,-5 -3,-11 -7,-16 -5,-2 -10,-4 -16,-5zm70 11c-2,3 -4,8 -5,12 3,4 7,5 12,5 4,1 7,3 9,8l2 6 5 -3 6 -11 1 -9 -6 -1 -24 -7zm36 3l0 22c3,-1 6,-2 9,-3l2 -9 -4 -1c0,-4 -3,-7 -7,-9zm-173 7l7 1 -2 10 -6 1 1 -12zm95 5c-3,5 -5,10 -6,16 -1,5 -4,9 -9,13 1,5 3,9 8,13l17 13c2,-2 3,-5 4,-8 0,-5 -2,-10 -4,-16l-4 -17c0,-5 -2,-9 -6,-14zm93 18c2,2 4,3 8,3l-8 -3zm-18 19l-3 5 5 0c0,-2 -1,-3 -2,-5zm-129 25l-1 10 17 9 16 2 49 27c4,2 8,3 12,4l3 -10 -1 -5 -14 -5c-5,-1 -9,-3 -14,-6 -3,-3 -7,-5 -11,-7l-26 -12 -30 -7zm3 23c-3,5 -4,10 -4,17l8 68c0,2 1,3 2,3 4,4 6,9 6,15l2 19 2 5c3,-1 5,-3 7,-5l-2 -36 1 -3 7 0 1 -12c-2,-5 -5,-8 -8,-12l-10 -11 -5 -16c-1,-5 -2,-11 -3,-17 -1,-5 -2,-10 -4,-15zm117 18c1,4 1,8 3,12 0,-4 -1,-8 -3,-12zm-97 9l0 5 10 -1c-3,-2 -7,-3 -10,-4zm103 9c-3,3 -5,6 -6,10l5 3c4,2 10,4 15,6l7 -1c-2,-4 -4,-7 -7,-9 -4,-3 -8,-6 -14,-9zm-39 10c0,3 2,6 4,9l0 -9 -4 0zm-27 1c1,2 3,4 5,5 -1,-2 -2,-4 -5,-5zm55 14l-3 11c1,2 3,4 5,6l3 -17 -5 0zm-70 5l3 20c-1,4 -2,9 -3,14 0,1 0,1 2,2l1 -1c5,-2 9,-5 12,-9l19 -6c5,-2 9,-5 11,-10 0,-2 -1,-4 -2,-5l-15 0 -15 4c-2,-6 -7,-9 -13,-9zm89 16l0 -2 -1 0 1 2zm-34 2l-5 9c2,1 5,1 9,2 2,-2 3,-4 4,-7 -2,-1 -5,-3 -8,-4zm-39 12c0,5 1,10 2,15l8 4 3 -3 2 -9 -4 -2c-3,-2 -7,-4 -11,-5zm37 9l-2 5 1 2 3 -2c0,-2 -1,-3 -2,-5zm-55 13l3 4 1 -4 -4 0zm21 2c2,3 3,6 5,9l8 -3 3 -6 -16 0zm56 0l-3 3 5 2c-1,-2 -1,-4 -2,-5zm-90 41l2 19c0,5 1,10 3,15l1 -16 -1 -3 0 -15 -5 0zm47 44c-2,3 -2,6 -2,9 1,2 2,3 5,4 2,-3 4,-5 5,-9 -2,-1 -5,-3 -8,-4zm-98 4l-2 8 2 1 6 -1c2,-2 3,-4 3,-7l-9 -1zm42 7c-2,3 -3,7 -3,12 2,3 5,6 9,8l13 4 12 5 2 -7 -5 -2 -19 -14c-3,-3 -6,-5 -9,-6zm51 7c-2,1 -3,3 -4,5l6 0 2 -5 -4 0zm-96 26l1 10 9 0c0,-6 -4,-9 -10,-10zm99 20l0 9 6 -1 0 -8 -6 0zm-100 7c0,2 1,4 3,6 0,-2 -1,-4 -3,-6zm64 5l0 4 3 -3 -3 -1zm-22 23c-1,1 -3,2 -4,4 3,2 6,3 10,3 1,-1 2,-3 4,-5l-10 -2zm-42 3c0,3 1,6 3,9 0,-3 -1,-6 -3,-9zm63 10c-2,3 -3,6 -4,10 3,2 6,3 11,3 1,-3 3,-7 4,-10 -4,-2 -7,-3 -11,-3zm-56 9l-1 17 4 1 10 13 6 17c1,6 4,9 10,10 0,-5 -1,-11 -3,-16l-6 -17c-2,-5 -4,-10 -7,-16 -3,-5 -7,-8 -13,-9zm194 29l0 12 10 -1c0,-7 -3,-10 -10,-11zm210 7l-13 2c0,3 1,5 4,8l3 1 8 -2 1 -7c0,-2 -1,-2 -3,-2zm-339 3l-4 14 0 9 7 -2c2,-3 4,-8 4,-13 -2,-3 -4,-6 -7,-8zm180 0l0 4 3 -3 -3 -1zm55 14c1,5 2,9 4,14 5,1 10,2 15,3l-6 -13c-4,-2 -8,-3 -13,-4zm-55 10c-2,3 -3,7 -3,11l6 2 2 -13 -5 0zm-177 11l-3 15 2 32c1,3 2,6 5,8l4 -13 0 -34c-1,-4 -3,-7 -8,-8zm226 0l1 12 5 0 0 -12 -6 0zm102 2l-2 11 5 -1 2 -9 -5 -1zm-157 14l-1 13c1,2 3,3 5,3l2 -13 -1 -3 -5 0zm153 2l0 5 6 0c-1,-3 -3,-4 -6,-5zm-347 3c0,4 3,7 7,7 0,-4 -3,-7 -7,-7zm307 19c0,2 1,4 2,6l1 -5 -3 -1zm38 4l0 9 10 -2 1 -7 -11 0zm-76 2c0,2 2,3 4,3l-4 -3zm-60 1l-11 3c-4,0 -7,3 -8,7 3,2 6,3 10,5l11 3 10 1 3 -1c2,-3 3,-6 4,-10 -1,-3 -3,-5 -6,-7l-13 -1zm29 4l2 13 8 -2 2 -8 -1 -2 -11 -1zm22 1l-3 2 -1 6 2 2c1,-4 2,-7 2,-10zm-156 22l-4 2c1,3 4,6 8,8 2,-3 3,-6 3,-10l-7 0zm97 13l-7 15 2 1c1,-2 3,-5 6,-7l9 4 7 1 2 -3 4 -9 -10 -2 -13 0zm31 6l-1 10c0,2 1,3 2,3l14 -1 2 -7c-2,0 -3,-1 -4,-2l-13 -3zm147 12c1,3 1,5 1,9l-1 2 -8 -1c1,-5 4,-8 8,-10zm-34 2l9 0c0,2 -1,3 -2,4l-8 2 1 -6z"/>
   <path class="fil0" d="M3965 2841l12 0 0 9 -10 0 -2 -9zm51 0l16 0 3 1c2,2 3,5 4,8l-27 0 4 -9zm49 0c7,0 15,1 23,3 5,0 9,2 12,6l-9 1 -17 0 -5 1 -3 -1c-3,-2 -6,-4 -8,-7l7 -3zm47 0l14 0 3 1 2 9 -3 3 -12 -2 -5 -2 1 -9zm-116 3c3,0 6,2 9,4l-4 0 -7 2 2 -6zm-117 3l9 0 -2 7 -7 2 0 -9zm54 3l12 2c0,2 -1,4 -2,6l-14 7c4,2 9,4 15,4l13 0 -1 -7c3,-2 7,-3 12,-4l5 0 -4 12c3,-1 5,-2 8,-4l1 -11 9 1c5,3 9,5 14,9l12 8c1,-5 3,-10 5,-16l20 -1c6,1 12,2 19,3l13 7 14 -8 20 1 17 5 14 7c2,3 3,7 4,11l-5 1 -1 11 5 4 6 15 4 17 0 16 3 2 5 16 2 19c1,5 4,9 6,14 2,5 4,10 4,17 2,4 4,10 5,17 -4,2 -8,3 -13,3l0 -6c0,-5 -1,-11 -3,-18l-6 -14 -3 -18 0 -12 -6 -3 -6 -2 -1 13 -4 8 6 2 1 16 -1 3c4,2 7,6 9,11 1,5 3,11 5,16 3,4 6,7 9,12l16 5 11 47 -4 -1 -17 -1 0 -4c3,-5 4,-10 6,-16 -1,-5 -2,-10 -6,-16 -2,-3 -5,-7 -9,-10 -2,5 -5,9 -8,13 -6,1 -11,3 -17,5 -3,2 -6,4 -7,8l4 0 30 -3 4 1 1 3c-2,4 -3,7 -4,11 3,4 5,10 5,16l4 4 8 1 2 -1 10 -1 -2 9c-4,2 -10,4 -17,5 0,0 -1,1 -2,2l2 6 6 2 13 1 -1 5c-2,5 -3,10 -4,15 3,3 7,7 11,10l5 11 -6 -1 -6 1c0,4 2,7 3,10 4,3 8,6 11,11l-6 15 9 35c1,4 5,8 9,11l6 3c0,4 -1,7 -3,10 2,4 3,9 3,14 -1,6 -5,10 -12,10l5 4 10 0 0 11c0,6 2,11 6,16l7 14 17 67c0,6 1,11 3,18 0,5 1,11 3,18l2 19c2,4 3,10 4,17l5 16c2,4 3,10 5,17l7 34c1,5 2,11 3,18l1 20c0,5 -2,11 -5,16 -5,2 -10,4 -16,5l-6 -1 -2 12 1 10 17 -5 6 23 0 12 -1 9c-4,2 -10,4 -16,5l-20 -1c-5,-2 -10,-4 -15,-6l-1 6 1 2 -21 0 -3 -8 -11 -1 -1 5c-4,2 -10,4 -16,4l-43 0c-3,-1 -6,-2 -10,-3l-5 1 -21 0c-5,0 -11,-2 -17,-4l-3 -31 6 -2 12 -9 0 -13 -5 -2 -7 14 -10 -1 -9 -73c2,-2 4,-4 5,-6l-7 -12 -6 -14 -6 -36 -61 0c-4,-3 -7,-7 -9,-12l-8 -56 0 -6 16 0 -1 -10 -5 0 -4 7c-3,0 -6,-2 -9,-4l-3 -4 -3 10 6 74 -20 -1 -3 1 -14 1 -3 2 -15 91c0,6 -3,10 -9,12l-18 -3c-5,1 -9,4 -12,9l-13 8 -16 6c-1,3 -2,6 -3,10l8 0c4,1 9,4 12,8l-1 11 -2 4 2 1c-2,2 -5,4 -8,5l-34 3 -5 0c-3,-3 -6,-7 -7,-13 -2,-4 -4,-9 -5,-15l-6 -66 -6 3 -2 -2 -8 -12 -12 -30 -3 -19 -6 -3 0 10 2 18c1,5 3,10 5,16 2,5 4,10 7,14l-2 8 10 23 4 16c1,5 3,11 4,18l1 15 -1 3c-2,5 -5,9 -8,14l-12 2 -7 -60 -1 -3c0,-5 -1,-11 -3,-17 -1,-4 -4,-7 -9,-8l1 5 3 39c0,5 2,11 4,17l4 9 -1 6c-2,5 -5,10 -8,14l-14 -1 -1 -5 0 -21c0,-5 -3,-10 -7,-14l-1 41 -3 2 -13 -3 -16 -6 -4 1 3 7c-3,1 -7,2 -12,2l-1 -7 0 -21 3 -18 7 -14 0 -9 3 -8c1,-5 3,-10 8,-15l5 16 1 -4 -2 -30 1 -3 0 -15 26 -128c0,-5 2,-11 4,-17l8 0 1 -11 0 -15 1 -5 1 -20c4,4 6,7 9,12 1,4 3,10 4,17 1,5 2,11 4,17 1,1 2,3 3,4 2,-2 4,-5 5,-8l7 -5 -4 -5 -8 -13c-1,-5 -3,-11 -4,-17l-2 -39c4,-4 7,-8 9,-13l0 -21 -4 -1 25 -146 12 2 10 -1 1 -5 -1 -2c-2,-3 -4,-7 -5,-12l4 -1c3,-4 5,-8 5,-14l20 -106 0 -21 -2 -16 10 -35 11 -12c3,3 8,5 12,6l21 0c2,-5 5,-8 11,-10l6 -2 -5 -6 -9 1c1,-3 2,-6 5,-9l14 -1 3 -2c5,0 10,-3 14,-7zm104 16c0,1 1,2 2,3 1,-1 3,-2 4,-3l-6 0zm-154 3l7 1c0,4 -2,6 -6,8 -2,-1 -5,-3 -6,-6l5 -3zm204 3c1,2 2,4 4,6 0,-2 -2,-4 -4,-6zm-101 4c1,4 2,7 4,9l3 1 9 -1c0,-2 -1,-5 -2,-8l-14 -1zm-48 8c2,5 5,9 8,13 5,2 10,2 15,3 -1,-4 -3,-8 -6,-12 -5,-2 -11,-3 -17,-4zm74 1c1,3 2,6 4,8 0,-3 -2,-5 -4,-8zm-39 17l0 5 10 -1c-3,-1 -7,-3 -10,-4zm42 14c0,3 2,6 4,8l1 -8 -5 0zm20 8l-2 8 6 -1 2 -7 -6 0zm-132 9l3 16c1,3 4,5 7,7l1 -17 0 -6 -11 0zm158 3c0,1 2,1 3,1l-3 -1zm18 5c2,6 6,9 12,10l1 -3 -2 -7 -11 0zm27 4c-3,1 -5,3 -6,6l8 5 7 8 11 -1c1,-3 2,-6 2,-10l-1 -5 -5 3c-2,0 -5,-1 -7,-3 -3,-1 -6,-3 -9,-3zm-199 32c0,5 3,8 8,9l2 -8 -10 -1zm184 15c1,4 1,8 2,12l10 -2 1 -3 -1 -7 -12 0zm-269 6l6 0 0 7 -6 0 0 -7zm63 12l-6 0 1 17 -4 11c-2,-1 -4,-3 -7,-5 -2,-1 -4,-3 -6,-6l-9 2 9 14c4,4 10,6 17,7 0,-6 3,-11 8,-16l9 -1 -2 -11c-2,-5 -5,-9 -10,-12zm-26 1l0 3 1 0 4 -1 -5 -2zm128 7l-30 271 0 15c1,3 3,6 6,9l3 27c3,2 5,3 8,4l10 -5c2,-2 4,-3 6,-6l-9 -6c-3,-1 -6,-4 -8,-7 1,-3 4,-6 7,-8 4,0 7,0 11,2 1,3 3,6 6,8 4,1 8,2 13,2l5 -10 23 -8c2,-1 5,-3 8,-4 4,2 7,4 11,5 4,0 6,-3 6,-8l-19 -10 -12 -13 -1 4 0 4c-3,0 -5,-1 -7,-4l-29 -256c-1,-4 -3,-6 -8,-6zm-171 13l4 7 -3 3 -1 -10zm249 3c2,2 4,2 5,3l-5 -3zm-167 7l0 14c1,3 3,5 5,7l9 5c2,2 5,3 8,4l1 -3 -2 -7 -5 -9 -7 -7 -9 -4zm126 16c1,3 2,4 4,6 -1,-2 -2,-4 -4,-6zm-220 21l5 1c0,5 -2,10 -3,15 -2,0 -3,-1 -4,-2l2 -14zm264 6l1 10 9 -1c-3,-4 -6,-7 -10,-9zm59 3l-13 4 -20 13c1,2 3,3 4,3l36 -12 0 -8 -7 0zm-77 17c1,2 4,3 6,3 -2,-1 -4,-2 -6,-3zm35 4l-15 5c-1,2 -3,5 -4,8l4 0c4,0 7,1 10,2l3 -3c1,-3 2,-7 2,-12zm-270 9c-5,0 -8,2 -11,6l-2 8 0 4 4 0 0 -2 9 -8 4 -8 -4 0zm209 2c-1,1 -2,2 -3,4 2,-1 3,-2 3,-4zm31 4c-4,1 -7,3 -9,7l5 -1c3,-1 5,-3 8,-6l-4 0zm-250 18l-11 17 4 1 11 -9 1 -7 -5 -2zm126 11l-5 2c0,4 1,7 3,10l4 -3c0,-3 -1,-6 -2,-9zm150 10c0,3 1,6 2,10l0 -8c0,-1 -1,-2 -2,-2zm-139 2l-2 8 4 -1c2,-2 3,-4 3,-7l-5 0zm-140 8c-2,1 -3,2 -4,4l6 2 2 -5 -4 -1zm150 9l-10 6 -1 5 6 1c3,-2 6,-4 8,-6l2 -6 -5 0zm146 4l-4 11 -10 3c-2,2 -4,5 -5,8l-2 12c1,1 3,2 5,2l12 -1 6 9c1,3 3,5 6,7l5 -1 -2 -6c-3,-2 -5,-4 -6,-8l6 -7 -7 -7 -2 -7 4 -1 9 -4 -6 -7 -9 -3zm-243 5l-1 5 2 4 5 -1 1 -8 -7 0zm-59 10c1,6 5,9 11,11 -1,-4 -1,-7 -2,-11l-9 0zm83 19l-3 14c1,2 3,5 5,7 1,-4 2,-8 3,-13 -1,-3 -3,-6 -5,-8zm-90 1l5 13c-1,1 -3,2 -4,4l-1 13 6 -1c1,-6 3,-13 7,-20 -1,-6 -6,-9 -13,-9zm66 8l-8 3c1,3 3,6 6,9l11 12 6 0c0,-4 -1,-8 -4,-12 -3,-4 -7,-8 -11,-12zm24 24l-3 13 -3 27c0,4 1,8 3,12 0,-3 1,-7 2,-12l2 -27 -1 -13zm247 10l-1 6c0,1 2,2 4,2 0,-3 -1,-6 -3,-8zm80 0c1,2 3,4 5,5 -1,-3 -2,-4 -5,-5zm-158 8c1,5 4,10 9,14l14 6c0,-7 -4,-10 -11,-11 -3,-3 -7,-6 -12,-9zm-265 17l-5 1 2 13c1,-4 2,-9 3,-14zm64 1c0,4 1,8 2,12l1 -10c0,-1 -1,-2 -3,-2zm237 1l-7 2 1 12 4 20 5 1 0 -17 -3 -18zm-58 1c2,0 5,1 8,1l-1 7c-4,-1 -6,-4 -7,-8zm17 24l3 10c3,2 6,3 10,3 0,-3 -1,-7 -2,-11l-11 -2zm-170 5l-2 36 5 -1 2 -15 0 -3c0,-6 -2,-11 -5,-17zm195 0l-1 7c1,1 2,2 3,2 0,-3 0,-6 -2,-9zm-132 1l-1 13c2,1 4,2 7,3l2 -12c-2,-2 -5,-3 -8,-4zm154 1l2 8 10 -1c-2,-4 -6,-7 -12,-7zm-291 3c-1,3 -2,6 -3,10l5 -1 3 -9 -5 0zm235 7c-2,5 -2,9 -3,14l5 -1c2,-3 3,-7 3,-10l-5 -3zm42 3l3 15c0,4 3,7 7,8l1 -12 -2 -4c-2,-3 -6,-5 -9,-7zm-82 6l-2 6 1 2 2 3 7 -2c1,-2 2,-6 3,-9l-11 0zm181 4l0 5c2,-1 4,-2 6,-4l-6 -1zm-378 1c0,2 1,3 2,3 2,0 3,-1 5,-3l-7 0zm325 4c1,4 3,8 5,12l8 5 -3 -13c-3,-2 -6,-3 -10,-4zm-149 2c-4,4 -6,9 -7,16 3,5 5,10 7,17 3,-5 4,-10 5,-15 0,-6 -2,-11 -5,-18zm215 10c-2,2 -3,4 -4,7 2,-2 4,-4 4,-7zm-316 11c1,3 2,7 4,9 0,-3 -1,-6 -4,-9zm-86 3c-4,3 -9,6 -15,7 1,6 2,13 3,19 5,-2 9,-5 12,-9 1,-4 2,-9 2,-15 0,-1 -1,-1 -2,-2zm419 0c-4,1 -8,4 -11,7l0 5 12 -1 2 -7 7 2 0 -6 -10 0zm-44 6l-18 5 -80 55c-5,1 -7,4 -7,8 5,-1 11,-3 16,-6 5,-2 10,-5 14,-8l28 -17 17 -6c4,-4 7,-7 10,-12l13 -9c4,-2 7,-5 7,-10zm14 0l1 12 7 -2 2 -10 -10 0zm-304 7l0 17 -1 3 -2 78 -1 9 0 45 4 -1 0 -16 1 -3 0 -20 3 -38 0 -37 1 -2 0 -34 -5 -1zm-74 6l0 14 8 0c-1,-5 -3,-10 -8,-14zm285 4c0,2 1,4 3,5 0,-2 -1,-3 -3,-5zm-148 6l-4 3 0 6 2 1 3 -2 0 -8 -1 0zm-155 1l-1 14 1 3 7 12 7 30 4 61 5 -3 3 -35 -3 -36c-1,-4 -2,-9 -5,-13l-1 -14c-1,-4 -3,-8 -6,-12 -3,-2 -7,-5 -11,-7zm384 3l-1 6 2 -4 0 -2 -1 0zm68 7c2,3 4,6 7,8 0,-4 -2,-7 -7,-8zm-295 10l0 12 13 -1c-3,-5 -7,-9 -13,-11zm219 0c-4,4 -9,7 -15,9l2 13 4 -1c3,-4 8,-7 13,-10l3 -11 -7 0zm77 6c-4,0 -7,2 -9,6 3,1 6,2 10,2 3,-1 6,-3 9,-5 -3,-2 -6,-3 -10,-3zm-56 2c2,1 5,3 8,3l-8 -3zm-183 6c1,2 2,4 3,5 0,-2 -1,-4 -3,-5zm11 0c1,2 2,4 4,6 0,-2 -2,-5 -4,-6zm114 0c-3,1 -5,4 -7,7 0,3 2,5 4,7 2,-1 5,-4 6,-7l1 -7 -4 0zm-29 6l-5 10 6 -3 8 -6 -9 -1zm80 6l0 10c0,1 1,2 3,3 -1,-4 -1,-8 -3,-13zm-60 7c-1,3 -2,6 -2,10l3 0 2 -8c0,-1 -1,-2 -3,-2zm21 2l1 10 2 1 5 -1 2 -1c0,-6 -4,-9 -10,-9zm-47 12l1 28 8 -1c0,-4 -1,-9 -3,-14l-6 -13zm93 5l-1 11 4 0c-1,-3 -2,-7 -3,-11zm-453 2l0 3 2 -2 -2 -1zm417 0l0 15 6 -3 4 -2c4,2 9,3 15,4 0,-4 -3,-8 -8,-11l-17 -3zm-35 3l-4 1c0,2 2,4 4,7 2,3 6,5 10,6l2 -7 -1 -3c-3,-2 -7,-3 -11,-4zm76 6c0,2 2,4 4,6 -1,-2 -2,-4 -4,-6zm-56 4l-3 5 5 1 -2 -6zm73 3c0,4 2,7 5,10l0 -10 -5 0zm-477 5l-1 14 1 12 4 11 0 28 -5 8c2,2 5,4 8,5l5 11 5 0 -7 -71 0 -15c-3,-1 -6,-2 -10,-3zm417 0l-2 6 4 0 2 -5 -4 -1zm22 0l-2 5 2 9 0 3c0,6 -4,9 -10,10l-8 2c1,2 2,5 3,8 6,0 12,1 18,3 3,2 7,3 12,4l-8 -18 -1 -11 2 -6 1 -8 -9 -1zm-93 8c1,1 2,3 3,5 0,-2 -1,-4 -3,-5zm22 5l-14 2 0 9 5 2 4 13 6 9c1,2 2,2 3,2l5 -4c0,-2 0,-5 -3,-7 -1,-4 -3,-8 -4,-13l-2 -13zm-235 4c0,4 0,7 2,10l1 -6 -1 -2c-1,-1 -1,-1 -2,-2zm354 7l1 3 1 -3 -2 0zm-99 11c1,1 3,2 5,3 -1,-2 -3,-3 -5,-3zm10 7l7 3c-2,-1 -4,-2 -7,-3zm-5 2l-3 8c1,1 2,2 3,2l2 -8c0,-1 -1,-1 -2,-2zm138 8l0 5c2,-1 3,-3 5,-5l-5 0zm-411 7l1 11 7 0 0 -11 -8 0zm327 0l1 14c3,2 6,4 10,5l-3 -12c-2,-3 -4,-5 -8,-7zm-83 1l1 10 5 0 0 -10 -6 0zm35 7l-3 7 2 -1 3 -4c0,-1 0,-2 -2,-2zm36 6c0,3 1,5 3,8l1 -8 -4 0zm104 4l-8 6 -3 5c1,0 2,1 4,1 3,0 6,-1 9,-3l1 -8 -3 -1zm-549 1c-2,3 -5,5 -6,9l7 6 5 0 -1 -7c-1,-3 -3,-5 -5,-8zm418 3c2,4 6,6 11,7 -3,-3 -7,-6 -11,-7zm-42 2c1,2 2,4 4,6 0,-2 -2,-4 -4,-6zm152 7c-1,2 -2,5 -2,7l5 0 2 -7 -5 0zm-23 11c-2,2 -5,5 -8,8l6 2c4,-1 7,-2 10,-5 -2,-2 -5,-3 -8,-5zm-501 7l-1 14c0,4 1,9 3,13l0 -15c0,-4 -1,-8 -2,-12zm567 -1c3,1 7,3 10,6l5 11 0 16c-1,4 -2,8 -4,12 -4,0 -6,-3 -7,-7l0 -15 -2 -14c-1,-3 -2,-6 -2,-9zm-94 9c-3,1 -6,3 -9,5 0,4 2,6 6,6 3,0 6,-2 9,-4 0,-4 -2,-6 -6,-7zm-491 1c1,2 3,3 6,3 -2,-1 -4,-2 -6,-3zm433 10l2 5 1 -5 -3 0zm95 7l0 5 6 -1c-2,-2 -4,-3 -6,-4zm-133 6c0,4 2,7 6,7l2 -7 -8 0zm165 5l-3 3c2,3 4,4 7,6 0,-3 -2,-6 -4,-9zm-118 2c1,3 3,6 5,9 5,1 9,1 14,2 -1,-4 -2,-7 -5,-10l-14 -1z"/>
   <path class="fil0" d="M4472 2905l152 0 76 15 33 13 29 16 21 25 5 11c2,3 4,6 7,8l5 9 7 24 1 14c2,3 4,6 5,10l2 39 -5 0c0,3 1,7 2,10l3 58 -4 27 -7 23 -11 18 -15 16c-3,2 -5,5 -7,8l-7 9 -8 7 -23 7 -13 0 0 1c0,4 1,8 3,12l40 21 15 15 4 11c3,1 5,4 6,7l0 16c1,3 3,6 6,9l1 12 -5 0 -7 7c-2,1 -4,2 -5,5l8 2 10 -9 4 114 -14 10 4 3 11 5c0,3 -1,7 -2,11l-10 6 -14 6c-1,-2 -2,-4 -2,-6l2 -14 0 -14c-1,-4 -3,-7 -7,-8l-27 3 -3 8c1,1 2,1 3,2l13 2 5 4 -4 2 -2 2 -1 -1c-3,0 -5,-1 -8,-1l-15 -1 -6 -3c-2,0 -3,1 -3,2l0 16 -3 11 -5 5 -2 -5c-1,-3 -2,-8 -2,-12l-2 -14 -5 -2 -10 13 -17 12 -1 15c2,2 5,3 9,5 2,3 3,6 4,10l-5 9c1,3 2,7 4,10 4,0 7,-2 10,-6 3,-2 7,-3 11,-3 4,0 7,-1 11,-3l4 -12 8 6 12 -3 6 11 9 -4 5 26 8 1c0,-1 1,-1 2,-3l-1 -1c-3,-2 -6,-4 -8,-8 3,-2 6,-5 7,-9 3,0 5,2 7,6 2,0 5,-1 8,-3l-2 -14 -7 -7c0,-4 2,-6 5,-8 4,1 7,3 7,8l12 4 2 13 11 34c1,4 3,8 6,11l7 22 8 7c-4,1 -8,1 -12,2l-144 0c-9,-22 -15,-33 -18,-36l-1 -14c-1,-4 -3,-7 -5,-11l-1 -13 -5 -11c2,-2 5,-4 7,-7l2 -8c0,-1 -1,-2 -2,-2l-2 6c-2,0 -4,-1 -5,-2l1 -15 -1 -75c0,-3 0,-7 2,-10l1 -14 -3 -12c-2,-4 -4,-7 -7,-10l-2 -13c0,-4 -1,-7 -3,-12 -1,-3 -2,-8 -3,-12 -1,-4 -3,-7 -5,-10l-9 -7c-1,-3 -3,-5 -6,-8l-9 1 -1 -4 -3 -1 -65 6c-4,1 -7,3 -10,5l-2 13 -3 276 -169 0 1 -8 0 -14c1,-4 4,-6 7,-9l-1 -7 -3 3 -4 -9 0 -122 1 -14 0 -15 1 -14c1,-3 3,-7 5,-10l9 -6c3,-2 5,-5 7,-9 -2,-1 -3,-2 -5,-3l-2 5c-3,3 -6,4 -10,6l-1 7c-2,0 -4,-1 -5,-2l0 -273c0,-4 0,-9 2,-14l-1 -9 -1 -216c2,1 4,3 6,5 2,3 4,5 6,9 2,3 4,5 7,8l15 16c2,2 4,5 6,9 3,2 5,5 8,8 2,0 4,-1 7,-2 2,-2 4,-5 6,-9l3 -12 -11 3 -10 2 -2 -4c0,-4 -1,-8 -3,-12l-17 -13 -6 -9 -2 -7 8 0 11 3 12 -3 59 0c3,2 5,6 5,10l2 13c3,2 4,5 5,9l-2 43c-3,1 -7,2 -10,4 -3,0 -6,1 -8,3l-5 12c1,2 3,4 5,6l4 -13c3,0 7,-2 11,-4l11 0 0 4c2,3 5,6 7,10l3 11c-1,3 -2,5 -5,6 -4,2 -7,3 -11,6 -1,3 -3,6 -6,8l-12 3c1,-3 3,-7 6,-9l4 0 -14 -13c-3,0 -5,1 -8,2l-6 9c0,3 1,7 3,11 2,2 4,4 5,6l17 14 13 17c2,3 5,6 8,8 1,3 3,6 6,9 3,2 6,4 8,6 2,4 4,7 7,10l2 12 -12 5 -31 0c-2,-2 -5,-3 -7,-4l-13 4 -3 6 11 8 -3 7c0,2 1,2 2,3 4,-2 8,-2 12,-3 1,4 3,7 5,10l3 2 6 -4c3,-2 7,-3 11,-3l-3 15 5 -2c3,2 6,5 8,8l3 5 -5 2 -2 2 0 7 1 -1c4,0 7,-2 10,-4l5 -5c0,1 1,3 3,4 3,-2 5,-4 7,-7l-2 -7 10 -5c2,3 2,7 3,12 -2,3 -4,6 -7,9l-10 4 -4 12 3 11c4,0 8,1 12,3l13 18c2,3 4,5 7,7 4,1 7,3 11,5 1,4 2,7 6,9l12 -3 4 12 9 5c1,-3 2,-6 2,-10l-4 -11c2,-2 5,-4 8,-6l10 -4c4,-2 7,-4 10,-6 3,-2 6,-4 9,-5l10 -2 3 0 0 2 7 22 -12 9 -8 -2c-2,-1 -5,-1 -8,-1l-14 23 -9 5 9 3c3,-1 6,-3 9,-5 1,3 4,4 7,5l3 -2 -3 -6 1 -10 4 1c3,1 5,2 6,4 -2,2 -3,5 -4,8 2,4 3,7 3,11l-6 9 -1 7c0,1 1,2 2,2l13 -1c1,-2 2,-3 3,-5 1,-4 3,-7 6,-10 3,2 7,4 10,7l1 13c0,4 2,8 5,11 3,-1 7,-3 10,-5l1 -11 -2 -14 2 -12c2,-3 4,-6 6,-10l9 -6c2,-2 6,-4 9,-6 4,-1 7,-3 11,-5 1,-3 3,-7 4,-11 3,-2 6,-4 10,-5l12 -4c3,0 6,-2 8,-4 1,-4 2,-8 3,-13l9 1 4 0 0 -1c2,-2 4,-5 5,-9l-15 -1 -5 9 -9 7 -11 4c-3,1 -6,2 -9,5 -2,3 -4,7 -6,9 -4,2 -7,4 -9,6l-8 4c-1,0 -3,-1 -3,-2l0 -16 -2 -13 -10 -5c2,-2 3,-3 6,-5 3,-1 6,-2 9,-5 2,-3 5,-5 8,-7l11 -5 6 -9c2,-3 5,-4 8,-5 3,1 7,2 10,5l-2 -11c-3,-2 -6,-4 -9,-6 -4,1 -7,3 -10,5l-43 -2c-4,-1 -7,-3 -10,-6l-2 -12c-1,-3 -1,-5 -1,-9l1 -3c-1,-3 -2,-7 -5,-10 -3,-2 -6,-4 -7,-9l-7 -23c-1,-3 -3,-6 -4,-10l-5 -11 -5 -10 -7 -8c-4,-1 -8,-3 -12,-3 -3,-1 -7,-3 -10,-5l-2 -40 1 -3 23 -1 -2 -4c-2,-3 -5,-5 -7,-8 -4,-1 -6,-5 -7,-9l8 -8 3 -12c-2,3 -3,7 -4,11l-12 3 -13 43 2 1c1,3 3,7 3,11l-1 15c-4,-1 -9,-1 -14,-3l-6 -8 -6 -2 2 13c-3,0 -5,-1 -7,-3l-8 -7c-2,-2 -4,-5 -7,-7l-5 10c0,2 -1,4 -2,7l-1 -6c-4,2 -7,3 -11,6 -2,1 -5,2 -8,2 -3,1 -5,4 -7,7l2 13 5 2 2 -2 0 -16 4 0 13 -2c2,3 4,6 5,10l-8 39 6 10c-1,4 -3,7 -6,9l-12 4c-2,-3 -3,-6 -3,-9l4 -1c4,0 7,-2 7,-7 -2,-2 -5,-4 -8,-6l-7 -8c-3,-1 -6,-4 -9,-8l-2 -12 -2 -36c2,2 3,3 5,3 2,-4 4,-6 9,-7l13 1c-2,-2 -5,-4 -7,-7 1,-4 3,-8 5,-12 3,3 4,6 4,10l0 4c3,0 4,-1 7,-3l-3 -14c0,-3 -2,-6 -5,-9l-6 -1 -1 6 -8 2 -2 -3 -3 -13c-2,-3 -4,-6 -7,-8 -3,-1 -6,-3 -9,-6 -2,-3 -4,-6 -6,-9l-2 -13 0 -30 1 -30zm-74 17l-4 13 7 -1c1,-3 2,-6 3,-10l-6 -2zm81 3l0 12 9 -1c-1,-5 -4,-9 -9,-11zm41 1l-3 16 2 1 4 -1c1,-5 2,-10 3,-16l-6 0zm-75 10c0,1 0,3 2,5l1 -5 -3 0zm134 1l-3 2 2 6 4 -1 3 -6 -6 -1zm-87 8c1,2 2,3 4,4 0,-1 -2,-3 -4,-4zm7 12c-4,1 -7,3 -10,6l-1 14 8 -2 0 3 0 0 0 1c-3,2 -5,5 -6,8l13 -3c2,-2 5,-5 6,-9 -2,-2 -4,-6 -5,-9 -1,-3 -2,-6 -5,-9zm20 0l-5 3c2,0 4,-2 5,-3zm58 5c-2,3 -4,6 -4,10 0,3 1,5 5,6 2,-2 4,-5 4,-9l0 -7 -5 0zm-49 8c-2,3 -4,6 -4,9l7 0c1,-2 2,-5 3,-9l-6 0zm-103 6c0,2 2,3 4,3 -1,-1 -3,-2 -4,-3zm-68 1c1,2 3,3 5,4 -1,-2 -3,-3 -5,-4zm73 9c-5,0 -8,2 -11,6l2 4 8 -3 11 -2c-2,-3 -6,-5 -10,-5zm-69 2l-1 10 1 3 3 1 1 -1 1 -13 -5 0zm144 1l-1 7 7 -2 3 -5 -9 0zm-113 6l-13 4c-1,1 -3,2 -4,3l2 9c4,0 9,-1 14,-3l2 -10 0 -3 -1 0zm151 1l-1 9 10 0 0 -9 -9 0zm-124 15l-2 10 6 0 1 -10 -5 0zm142 0l0 6 2 -5 -2 -1zm32 7c1,4 2,8 5,11 4,2 6,5 7,10l-1 14c3,-2 5,-4 7,-7l9 -8 -7 -9c-3,-1 -5,-4 -8,-7 -4,-1 -7,-3 -12,-4zm-57 1l0 10 9 -1c-2,-3 -5,-6 -9,-9zm26 4c0,3 -1,6 -1,9 0,1 1,2 2,3l2 -10 -3 -2zm-149 20l-4 3c2,0 3,-1 4,-3zm-33 8c0,2 1,3 3,4l9 -3 -12 -1zm20 6l2 10 6 -1 0 -9 -8 0zm57 40l-3 8 2 3c2,2 4,5 6,8l2 -8 -1 -3c0,-4 -2,-7 -6,-8zm18 1l-1 5 2 0 1 -3 -2 -2zm-42 1c2,4 4,6 7,8 2,2 4,5 7,7l-2 -13 -12 -2zm-9 10l-1 9 9 0c-1,-5 -3,-8 -8,-9zm54 3l-4 10 5 -1c2,-2 3,-5 4,-8l-5 -1zm239 1l1 5 0 -4 -1 -1zm67 2l-7 3c1,2 2,3 4,4l5 -1 1 -6 -3 0zm-136 6c0,3 1,5 3,8 0,-3 -1,-5 -3,-8zm148 12l-4 5 3 3c1,-1 3,-3 4,-5 -1,-2 -2,-3 -3,-3zm-409 6c-1,4 -3,8 -3,12l5 -2 5 -6 -7 -4zm21 2l-3 4 6 0c0,-1 -1,-3 -3,-4zm15 2c0,2 1,3 3,4 -1,-1 -2,-3 -3,-4zm359 0c-3,3 -5,6 -7,10l4 -2c3,-1 5,-4 7,-8l-4 0zm-421 1l7 1 3 -1 -10 0zm68 11c-2,1 -3,3 -3,5 1,-1 3,-3 3,-5zm322 0l-15 3 -9 7 -2 7 17 6 5 7 3 -3c-2,-4 -3,-8 -4,-13l-1 -9 4 0 1 -1c2,-1 4,-2 6,-4l-5 0zm-388 1l-2 4 6 -1 -4 -3zm39 0c0,2 2,4 4,6 -1,-3 -2,-5 -4,-6zm387 0l-2 12c2,2 3,3 6,3l4 -9c-2,-2 -5,-4 -8,-6zm-122 5c0,2 2,4 5,5 -2,-2 -4,-4 -5,-5zm94 5l-1 7 1 4 4 1 3 -1 2 -7 -1 -3 -8 -1zm-134 20l5 2c-2,1 -2,3 -3,5l8 3c4,1 7,3 9,8l-40 18 -12 3 -7 2 1 -7 5 -10 10 4c2,-2 4,-5 6,-8l5 -7 0 5c3,-1 5,-3 7,-5l-6 -1 2 -7 10 -5zm46 4l8 1c-2,3 -5,6 -9,6l-7 16c-4,-4 -7,-10 -8,-17 4,-3 9,-5 16,-6zm-164 7l10 0 1 11c0,1 -1,2 -1,3l-8 2 -2 -16zm-134 2c0,4 1,6 4,8l1 -8 -5 0zm384 0c1,4 3,6 7,7 -1,-3 -3,-5 -7,-7zm-57 4c1,2 2,5 5,7 -1,-3 -3,-5 -5,-7zm21 1l-9 6 0 5 8 -2 9 -4c-2,-3 -5,-4 -8,-5zm-366 1c2,5 4,11 4,17l-6 2c1,3 3,6 4,9l2 13 5 -2c6,0 12,-2 17,-6 -5,-2 -10,-5 -15,-10l-1 -5c3,2 6,3 10,4l2 -11 -10 -1c-2,-4 -6,-8 -12,-10zm35 6c1,3 2,5 3,8 0,-3 -1,-5 -3,-8zm150 1l11 4 13 -3 9 0c-1,2 -2,4 -3,6l-22 12 -7 4 -4 -3 -5 -12c2,-2 5,-5 8,-8zm-136 13c0,2 1,3 2,5l1 -5 -3 0zm92 3l0 8 4 -2c-1,-3 -2,-4 -4,-6zm60 6l12 0c-2,3 -4,6 -7,9l-9 2c2,-3 3,-7 4,-11zm93 0l1 7 -9 -1c1,-3 4,-5 8,-6zm-259 2c0,4 2,8 7,10 -1,-4 -3,-7 -7,-10zm89 6l-2 4 4 0 -2 -4zm265 2l-2 7 15 1c-2,-5 -6,-8 -13,-8zm-224 2l-3 5 1 3 5 1c1,-3 1,-5 2,-9l-5 0zm129 0l10 1 -1 8 -7 1 -2 -10zm-295 6c1,4 2,7 5,9 2,2 5,3 8,4l-4 -9c-2,-2 -6,-3 -9,-4zm361 2l-2 8 9 -4 -7 -4zm-221 1c2,4 4,9 7,13l2 5 8 -3c-1,-3 -2,-6 -4,-9 -4,-2 -8,-4 -13,-6zm133 10l15 0 -3 8c0,5 1,10 3,16l-17 -3 -1 -11 3 -10zm55 8c-3,5 -7,8 -11,12 4,3 9,6 14,8 4,4 7,8 10,14l16 -4 0 -14 -6 -3c-2,4 -5,7 -9,10 -5,-1 -8,-5 -11,-10l3 -13 -6 0zm-209 5l-2 6 6 -2c-1,-2 -2,-3 -4,-4zm30 0l-3 4c2,-1 2,-2 3,-4zm-89 8l2 6 6 -2c-2,-2 -5,-3 -8,-4zm75 1c2,1 3,2 5,3 -1,-2 -2,-2 -5,-3zm-7 8l-15 7c-2,3 -2,7 -3,11 5,-2 8,-4 12,-8 2,-3 4,-6 6,-10zm-96 4c0,4 1,8 3,12l-3 -12zm353 3l1 24 9 -1c1,-4 1,-8 2,-13 0,-1 -1,-2 -2,-2 -3,-3 -7,-6 -10,-8zm-63 1l-2 5 4 1 -2 -6zm45 1c-3,3 -5,7 -8,11 -3,2 -6,5 -8,10l-3 15 -4 7 5 1c4,2 7,5 8,10 3,3 6,6 11,8l8 2 -5 -13c0,-2 1,-3 2,-3 4,0 8,2 12,4l9 2 0 -6c-2,-4 -5,-7 -9,-9l-26 -11c2,-4 4,-7 7,-10 5,0 8,-3 8,-9 -2,-3 -4,-6 -7,-9zm-217 2l-5 32c0,4 -1,9 -2,15l-1 11 4 -2c3,-2 5,-6 7,-10 0,-5 2,-11 3,-17l0 -14 -1 -3c0,-4 -2,-8 -5,-12zm-149 4l0 6 3 -5 -3 -1zm234 5l6 10c0,4 3,7 7,7 -1,-4 -2,-7 -4,-11 -2,-2 -5,-4 -9,-6zm-144 10l-2 6 5 0c0,-3 -2,-5 -3,-6zm36 0c1,1 2,2 3,4 0,-2 -1,-4 -3,-4zm248 3l0 7 8 -1c-1,-4 -3,-6 -8,-6zm-57 1l-4 3 4 7 17 0c2,-2 3,-4 4,-7l-21 -3zm96 5c1,2 2,4 5,5 -1,-2 -3,-4 -5,-5zm-196 1l-1 4 7 2 2 -1 1 -5 -9 0zm-145 3l-1 7 6 -1c-1,-2 -3,-4 -5,-6zm47 4l1 12 4 0 2 -5 -2 -7 -5 0zm-102 5c0,4 1,7 4,10l0 -10 -4 0zm263 1l6 8 0 -8 -6 0zm129 0l-1 4 4 0 -3 -4zm-359 7l0 5c2,-1 3,-3 4,-5l-4 0zm43 2c0,3 1,5 3,7l-3 -7zm311 5l2 12 6 0c-1,-5 -3,-9 -8,-12zm-318 8c0,4 2,9 4,13 -1,-4 -2,-9 -4,-13zm53 1l2 17 -5 32c0,4 1,7 3,10l4 -15 2 -16 0 -27 -6 -1zm252 3l-1 9 3 2 8 -1 2 -7 -12 -3zm-361 7l-7 11 2 1 13 -12 -8 0zm331 0c2,4 6,7 11,7 -3,-3 -7,-6 -11,-7zm-317 11l1 3 1 -3 -2 0zm44 2l0 2 0 0 0 -2 0 0zm2 2c0,4 1,8 3,12l7 0c-2,-5 -6,-8 -10,-12zm202 4l-1 8c1,0 2,-1 3,-2 0,-2 -1,-4 -2,-6zm68 3l-2 4 3 0 0 -4 -1 0zm-250 7c1,4 4,7 9,8 -2,-4 -4,-6 -9,-8zm-26 5l0 21 -6 33 -5 3c1,3 3,4 6,6l4 -16c3,-4 4,-9 5,-15l2 -18 0 -14 -6 0zm-48 3l-4 26 5 0 4 -13 0 -12 -5 -1zm114 2l0 10 4 -2 1 -8 -5 0zm183 22l-2 8 1 2 1 3c2,4 5,6 10,8l-2 -11c-2,-4 -5,-7 -8,-10zm23 0c-2,2 -3,5 -5,9l5 0 5 -1c-1,-3 -3,-6 -5,-8zm40 4c1,2 3,4 5,5 -1,-2 -3,-4 -5,-5zm35 0c-2,2 -5,5 -8,9l4 0 6 -1 2 -7 -4 -1zm-302 4c1,6 4,11 10,14 -1,-6 -5,-11 -10,-14zm-117 2l-6 12 3 1 7 -2 -4 -11zm19 6l-2 10c0,2 1,3 2,3l1 -10 0 -3 -1 0zm358 0c0,3 1,6 3,8 0,-3 -1,-5 -3,-8zm-21 7c-6,1 -12,4 -17,8 -2,3 -4,6 -5,10l6 3c4,-3 8,-8 11,-14l10 -1 0 -6 -5 0zm-370 5l0 10 4 -2 2 -8 -6 0zm134 0l-4 1c0,3 1,4 3,6l4 -6 -3 -1zm-23 7l-7 1c1,4 2,8 5,11l8 -12 -6 0zm306 0c-2,1 -3,3 -3,5 2,-1 2,-3 3,-5zm-337 6c-2,2 -5,4 -8,6l-12 1c-1,3 -2,6 -2,10l2 1 6 -1 2 0 22 -6 2 -11 -12 0zm44 0l2 14 3 -2 2 -12 -7 0zm250 10l0 2 2 -1 -2 -1zm-49 2c-5,2 -11,5 -18,8 -3,2 -5,6 -7,9 5,-1 11,-3 18,-5 3,-3 5,-7 7,-12zm-297 2l-5 10 -13 1 -9 3c0,3 1,6 4,9 2,-2 4,-4 7,-6l11 -3 8 -5c0,-3 -1,-6 -3,-9zm79 0c-3,2 -5,5 -7,8l4 9c2,-1 4,-3 5,-6l-2 -11zm246 0l0 10 5 -1 0 -9 -5 0zm-311 3l-7 2c1,1 2,3 3,5l6 -1 0 -5 -2 -1zm99 1c1,3 1,7 3,10l10 -1 1 -7 -14 -2zm-58 2l-2 3 2 8 1 -8 0 -3 -1 0zm345 12c1,2 3,3 5,3 -1,-1 -2,-2 -5,-3zm-383 2l-1 18 3 1 0 -16c-1,-1 -1,-2 -2,-3zm-25 8c0,4 1,7 3,10 0,-3 -1,-6 -3,-10zm86 2c0,1 2,3 3,4 0,-2 -1,-4 -3,-4zm-99 18c3,6 4,13 4,21l-5 15 5 0 5 -1 0 -19c0,-6 -3,-11 -9,-16zm114 2l1 5 6 -1c-1,-4 -3,-5 -6,-6l-1 2zm324 -1c3,3 5,6 5,11 -2,-3 -4,-7 -5,-11zm-361 9l6 11 4 2 10 -1c-2,-3 -5,-5 -8,-7 -4,-2 -8,-4 -12,-5zm263 -1l6 0 -1 12c-3,-3 -5,-7 -5,-12zm-283 15c-2,1 -4,3 -5,6 4,0 5,-2 5,-6zm18 8l-1 6 3 0 0 -5 -2 -1zm-14 7l0 7 4 -1 1 -6 -5 0zm267 28c1,3 2,5 4,7 -1,-2 -2,-5 -4,-7zm69 2l-2 4 5 0c0,-1 -1,-3 -3,-4z"/>
   <path class="fil0" d="M4859 2883l172 0 10 1 3 -1 4 0 -2 91 -8 2c-2,3 -4,5 -5,9l7 -1 6 -2 0 35 2 4 0 98c-2,5 -5,8 -10,8 4,3 8,7 10,12l1 72 -4 21c-1,2 -4,4 -7,6 1,2 2,5 3,7 4,5 6,11 7,18l3 38 -2 3 -1 52c-1,7 -6,10 -13,11 -6,0 -11,3 -15,10 -3,2 -6,4 -8,7l6 2c6,-1 13,-2 19,-5 3,-3 7,-4 11,-5l1 31c3,6 4,12 5,20l5 19c2,5 5,10 8,16l8 18 8 2c-1,3 -3,6 -4,9 -2,3 -2,5 -2,9l9 3 8 0 12 -3 6 -5 14 1c5,0 11,-2 16,-7 5,-4 11,-7 18,-7l112 8c3,1 6,1 9,1l2 -1 -4 -7c-5,-4 -10,-6 -17,-7l-102 -6 15 -74 1 -23 -2 -21 1 -12 -1 -3 -1 -56 1 -23c0,-7 2,-13 6,-19l4 -1c-1,-5 -4,-8 -8,-10l0 -239 1 -4 3 -2 26 6 3 -1 2 -2 -1 -2c-5,-2 -10,-5 -16,-9 -1,-1 -3,-2 -5,-4l-12 2 -1 -22 1 -7c2,3 5,5 9,6 0,-6 -3,-11 -9,-14l-2 -53 107 0 -2 7c-3,5 -5,12 -6,19 -3,5 -5,11 -7,17l-1 11 1 11c-2,6 -4,13 -5,20 0,7 2,13 4,20l9 1 3 -1 1 -5 0 -2 -1 0c-5,-4 -9,-8 -12,-14 4,-4 7,-9 10,-15 2,-6 3,-13 4,-20l4 -20c3,-5 5,-11 6,-18l0 -11 14 1 -12 36c1,6 2,12 5,18 0,4 2,9 5,13l0 -5 7 -42 0 -19c0,-1 2,-2 3,-2l20 0 1 15 -4 2 1 5 9 3 4 -25 20 0 0 37 -4 15 2 3c1,7 2,14 2,22l0 13c-2,-1 -4,-3 -6,-5 -4,3 -8,7 -12,10l-14 -1 -6 2c0,7 2,13 6,18 5,-2 9,-6 12,-12l8 -3c4,0 8,0 12,2l-1 72c-5,2 -10,3 -17,4 0,2 0,5 0,8l0 2 9 -2 8 -4 1 375c0,6 -1,13 -3,21l-23 75 -8 16c-3,4 -6,10 -10,15l-20 28 -12 13 -13 10c-4,4 -9,7 -15,11 -4,3 -10,5 -16,8l-17 7c-6,2 -13,3 -20,5l-21 3 -18 0 -2 -6 -12 -11c-6,-3 -12,-5 -19,-6 -3,-4 -6,-6 -11,-6 3,4 7,9 12,13 5,3 12,4 19,5l1 6 -1 3 -29 -5 -2 9 -11 0 -5 -4 -20 -5 -25 0 -4 1 -10 -2 -3 0 -3 -1 -39 -9 -18 -6c-5,-2 -11,-4 -17,-8 -1,-3 -1,-7 -2,-12l3 -8c0,-2 -2,-5 -3,-8 -3,1 -6,2 -8,4l-1 14 -9 -2c-5,-3 -8,-7 -11,-13l2 -6 -14 -2 4 -14 -17 0 -5 -9c0,-6 -1,-12 -3,-20 -2,2 -5,3 -8,3 0,-2 -1,-5 -1,-8l1 -2c4,-4 9,-8 15,-11 3,-1 5,-3 7,-7 -2,0 -5,-1 -8,-1 -7,0 -11,-4 -14,-10l-1 -5c1,-6 3,-11 5,-14 3,4 6,9 8,16 2,-3 3,-7 4,-12l-1 -10 1 -12 2 -6 -6 -9c3,-5 5,-10 7,-16 4,-4 7,-8 10,-13l0 -12c-2,-1 -5,-3 -8,-4 -4,3 -8,8 -10,13 -7,0 -11,-5 -12,-13l-2 -5 -15 1 -11 -2 -3 2 -5 1 0 -136 1 -4 4 38c0,3 2,6 3,10l2 -7 14 -12 2 -5c-4,0 -8,1 -12,2l-4 2 0 -3 4 -56 0 -4c0,-7 -1,-14 -3,-22l-3 -14c-1,1 -2,2 -3,3l-3 -7 0 -66 5 0 1 -1c2,-4 5,-9 10,-15l2 -7c-3,-2 -5,-5 -8,-8 -1,-2 -3,-4 -6,-6l0 30 -1 4 -4 1 0 -56 5 -1 0 -4 -1 -1c-3,-6 -4,-13 -4,-21l-1 -54 12 6 21 -2c6,-2 12,-4 19,-5 5,3 11,5 19,5 3,1 6,2 9,4l20 -3 21 3 10 -1c6,-1 10,-4 14,-9 -2,-2 -4,-4 -7,-6l-7 5 -15 2 -1 -7c0,-2 0,-6 1,-9l-8 2 -15 10 -14 2 -3 -7c-5,-1 -11,-2 -18,-3l-10 1 -10 -4 1 -11c-2,1 -4,3 -6,5l0 14 -9 -1 -19 0 -2 1 -1 -1 0 -19 -1 -4 -1 -72zm86 4l2 13c1,4 3,7 6,10l11 3c2,2 4,4 6,5 0,-3 -1,-7 -3,-10l-18 -12c0,-3 -1,-6 -4,-9zm293 12l0 9c2,-2 3,-4 3,-7l-3 -2zm-245 14l0 10 5 3c2,4 5,7 9,8l0 -16 1 -2c-5,-1 -10,-3 -15,-3zm-69 8l-6 4 1 35 3 -1c4,-5 6,-11 7,-18 -1,-6 -2,-13 -5,-20zm22 1l-6 1c1,3 3,5 5,8l6 -2c-1,-2 -2,-5 -5,-7zm-53 16c1,3 3,5 5,7 0,-3 -2,-5 -5,-7zm443 0l-6 4c0,2 1,4 3,5 2,-3 3,-6 3,-9zm-380 5c3,3 7,4 12,4 -3,-2 -7,-4 -12,-4zm58 0l0 7c2,-1 3,-4 4,-7l-4 0zm18 6l-1 11 8 -2 2 -9 -9 0zm304 4c-1,5 -2,11 -2,16l4 -5 0 -9c0,0 -1,-1 -2,-2zm-347 5c0,3 2,5 4,7l13 -1c-1,-2 -2,-4 -4,-6l-13 0zm-123 3c2,2 4,3 6,3l-6 -3zm145 4c1,4 4,6 9,6 -1,-3 -5,-5 -9,-6zm283 1l3 15 -8 29 -15 38 -3 25 5 -2 16 -1c2,-4 3,-9 5,-13l6 -48c0,-5 1,-11 1,-17l0 -18c-1,-4 -4,-7 -10,-8zm-65 9c-2,2 -3,4 -4,7l6 0c1,-2 2,-4 3,-7l-5 0zm-214 13c1,4 3,6 7,6l1 -6 -8 0zm228 3c0,2 2,3 4,4 -1,-1 -2,-3 -4,-4zm-28 1c2,7 7,10 15,10 -3,-5 -7,-9 -15,-10zm135 2c-2,5 -3,10 -4,15l2 8 4 -3 0 -9 5 -3 0 -8 -7 0zm-452 4l-2 8 1 3 14 -6c-3,-3 -7,-4 -13,-5zm341 8l8 8 1 9 -1 3 -8 36c0,4 1,8 2,12 -2,4 -3,7 -4,11 0,3 2,6 5,8 2,-3 3,-6 5,-9l7 -65 0 -9c0,-1 -1,-2 -2,-2l-13 -2zm-210 6l-7 1c1,2 3,4 5,6l8 8 5 -1 -1 -9c-3,-2 -6,-4 -10,-5zm-39 3l-2 9 0 3 3 -1 2 -9c0,-1 -2,-2 -3,-2zm204 2l3 2c0,-1 -1,-1 -3,-2zm152 4l-1 4 4 2 0 -5 -3 -1zm-431 2l0 17 1 9 3 -3 2 -13 0 -10 -6 0zm36 0c0,2 2,3 4,3 -1,-1 -3,-2 -4,-3zm255 0c2,2 5,4 8,4 -2,-1 -5,-3 -8,-4zm118 2l1 11 7 -2c-1,-5 -3,-8 -8,-9zm-459 4c0,3 2,5 4,7l1 -7 -5 0zm150 8l1 7 5 -2 2 -5 -8 0zm333 0l2 3c-1,-1 -1,-3 -2,-3zm-358 1l-1 5 2 1 0 -5 -1 -1zm295 -1c4,3 7,7 7,13 0,5 -3,10 -7,14l-5 2 0 -14 5 -15zm-248 4l0 7 4 -1c0,-2 -2,-4 -4,-6zm-22 19c-2,1 -4,2 -5,4l4 1 2 -1c2,-1 4,-2 5,-4l-6 0zm25 0c-1,2 -2,4 -3,7 0,2 1,3 2,3l3 -7c0,-2 -1,-3 -2,-3zm-147 12c1,2 3,4 5,4 -1,-1 -2,-3 -5,-4zm407 2l3 3c-1,-1 -2,-2 -3,-3zm22 2l-4 15 0 6 9 -3c2,-3 4,-7 5,-11l-10 -7zm-55 1c-1,6 -2,12 -4,19l-3 19c0,6 -2,11 -6,17 -3,0 -6,-1 -10,-2l-2 6 -2 20 1 39 -4 1c0,6 3,10 8,13l15 -74 11 -11c0,-2 0,-4 -2,-7l2 -8c2,-6 4,-12 5,-19 -1,-5 -4,-10 -9,-13zm-284 2l-3 7 4 2c1,-3 2,-6 3,-9l-4 0zm-63 1c1,7 4,10 11,10 -2,-5 -5,-8 -11,-10zm119 4l-2 26c1,1 2,1 3,2l1 -15c0,-4 0,-9 -2,-13zm253 1l-5 2c1,3 2,6 4,9 3,4 6,7 10,10l28 11 24 4c-1,4 -3,6 -8,6l-17 -2 -11 0 1 8 0 2 1 0 4 -1 10 -2 20 0 4 -1 -2 -12c-3,-3 -7,-6 -10,-9l-45 -15c-2,-3 -5,-7 -8,-10zm-280 1l-8 13 -2 8 6 1 2 -1c4,-2 8,-5 10,-11l0 -10 -8 0zm333 4c0,3 2,5 5,6 -1,-2 -3,-4 -5,-6zm-428 3l-4 2c0,4 1,9 2,14 1,0 2,-1 3,-2l0 -14 -1 0zm265 2l0 8 5 0c-1,-3 -3,-6 -5,-8zm-211 5c1,5 4,8 10,9 -1,-6 -4,-8 -10,-9zm279 6c0,4 1,8 3,12 0,-4 -1,-8 -3,-12zm-31 6c1,2 3,4 6,5 -2,-2 -3,-4 -6,-5zm-244 6l-3 6 6 0c-1,-2 -2,-4 -3,-6zm314 2l-1 12 -7 8c-2,3 -3,7 -4,11 2,3 3,7 5,11l-5 43 0 9 5 0 5 -27 4 -12c2,-3 3,-6 4,-11l6 -27 1 -15 -13 -2zm-406 5c1,5 4,7 9,8l0 -8 -9 0zm32 5l0 41c0,2 1,3 2,3 1,-7 2,-15 2,-24 0,-6 -1,-13 -4,-20zm278 9c1,1 1,2 2,2 0,-1 0,-1 -2,-2zm119 9c1,5 4,8 9,9 -1,-5 -4,-8 -9,-9zm-273 7c-1,0 -2,1 -2,3l3 0 0 -3 -1 0zm-175 4c1,3 2,5 4,7l1 -7 -5 0zm82 2l0 6 3 -5 -3 -1zm23 8c1,3 3,4 6,5 -1,-2 -3,-4 -6,-5zm342 8c0,2 2,4 4,6l1 -6 -5 0zm-447 0c0,3 2,6 4,9l1 -8 -5 -1zm155 0c1,3 3,4 6,5 -2,-2 -3,-4 -6,-5zm-125 7l-2 12c1,4 3,5 6,5l2 -10c-1,-3 -3,-5 -6,-7zm22 5l-4 15 0 30 1 3c1,4 2,7 4,10l4 -12 0 -18 -5 -28zm65 2l1 13c3,1 6,2 10,2l-3 -11c-2,-2 -5,-3 -8,-4zm262 22l-5 10 -3 22 1 2 0 4c0,4 1,8 2,12 3,-2 6,-4 9,-7l0 -32c-1,-3 -2,-7 -4,-11zm-268 4l-3 30c2,2 5,2 8,2l3 -32 -8 0zm-86 3l1 5 7 -1c-2,-1 -5,-3 -8,-4zm63 0l0 5 7 -1c-2,-1 -5,-3 -7,-4zm81 0l-1 5 8 -1c-2,-1 -4,-3 -7,-4zm273 0c0,6 3,10 8,12l2 -11 -10 -1zm-43 3c3,6 4,13 5,20l0 19 -5 1c-1,3 -2,6 -3,9l11 1 7 2 8 -6c-2,-4 -4,-9 -7,-13 -1,-4 -2,-8 -2,-13l5 -5 7 -1c-1,-4 -4,-6 -9,-6 -5,-3 -10,-6 -17,-8zm-404 1l5 0 0 30 -5 0 0 -30zm42 10c-2,0 -5,1 -8,1 0,3 2,6 4,8 3,-2 6,-4 9,-8l-5 -1zm406 17c-1,2 -2,5 -2,8l1 3c0,4 2,6 6,7l1 -3 -1 -15 -5 0zm-303 1c-1,3 -2,6 -2,9l10 -2c1,-2 2,-3 3,-5l-11 -2zm33 6l0 7 4 -1 1 -6 -5 0zm-124 5l-2 16 -14 5 10 3c4,2 6,6 7,11l1 9c2,-1 5,-1 8,-1l1 -14 -5 -18c0,-4 -2,-8 -6,-11zm-20 1l-1 8 12 1c-2,-4 -6,-7 -11,-9zm-16 4l0 10 8 -4 -8 -6zm339 7l-2 12 11 2c2,5 5,11 7,18 1,-6 2,-12 2,-19l-1 -4 -1 -9 -16 0zm-245 6l-2 11 8 -2 3 -5c-3,-2 -6,-3 -9,-4zm303 3l-3 14 1 4 0 6c4,-1 7,-2 10,-3l5 -6 -1 -9c-4,-2 -8,-4 -12,-6zm-329 13c-1,2 -3,3 -4,6l1 2 3 -1 4 -7 -4 0zm-48 2l-3 5 3 8 4 5 -6 4 -4 15c-5,0 -9,2 -12,6 4,0 9,-1 14,-2 4,-2 7,-5 8,-10l2 -18 0 -10 -6 -3zm354 5l-1 9 7 -1 1 -8 -7 0zm-262 5l1 13 6 -2c0,-5 -2,-8 -7,-11zm304 3c1,3 4,5 8,5 -1,-3 -4,-5 -8,-5zm-413 1l-1 5 3 0c0,-1 -1,-3 -2,-5zm150 0l-2 9 1 3 2 11 -4 10 0 8 6 -1 3 -12 1 -13c1,-4 2,-8 3,-12 -3,-1 -7,-2 -10,-3zm-69 7l2 6 9 -1c-3,-2 -7,-4 -11,-5zm267 1c-1,5 -1,11 -1,17l0 11 6 0 0 -28 -5 0zm47 0c-3,7 -4,13 -6,21l-1 18 3 -2c3,-6 5,-12 7,-20l2 -17 -5 0zm-410 5l1 7 6 -1c-1,-3 -3,-6 -6,-7l-1 1zm50 -1c0,6 1,11 2,16l0 -11c0,-2 -1,-3 -2,-5zm335 13l-2 15c0,2 0,5 0,8 0,1 0,2 2,3l2 -14c0,-4 -1,-8 -2,-12zm-381 9l-1 8c2,1 4,2 8,3 -2,5 -3,10 -5,14 1,5 2,10 5,14 3,2 7,4 12,4l4 0c0,-3 -1,-7 -3,-10 -3,-4 -4,-9 -4,-15l1 -6 -7 -3c-2,-4 -5,-7 -10,-9zm79 3l-29 6 -9 7 -7 3c0,2 0,3 2,4l28 -5c3,-2 5,-5 8,-8 3,-2 6,-3 7,-7zm280 5c-4,1 -7,3 -10,6 0,2 1,5 2,7 5,-3 7,-7 8,-13zm38 15l3 2c0,-1 -1,-1 -3,-2zm34 1l-10 5 -3 6 3 1 11 -3 -1 -9zm-341 14l-13 7c-3,3 -6,6 -8,11l6 13 3 16c1,1 3,3 5,4 1,-2 2,-4 3,-7l0 -19c0,-5 1,-10 5,-15 1,-3 2,-6 3,-10l-4 0zm61 10c1,2 2,4 3,4 0,-1 -1,-2 -3,-4zm322 1l-2 9 5 0 0 -8 -3 -1zm-92 16l-2 11 6 0 1 -11 -5 0zm-244 9c-1,5 -3,8 -8,10 -4,0 -8,2 -12,4l-1 4 1 11c4,0 7,-1 11,-3 2,-2 5,-3 9,-4 4,0 8,-1 12,-3l-2 -13c-3,-3 -6,-4 -10,-6zm-144 1c2,5 4,10 5,15l-2 2 -4 -1 -1 -4 2 -12zm163 5l1 19c1,-1 2,-2 3,-4l4 -10c-2,-3 -5,-4 -8,-5zm-84 13c-4,2 -8,5 -12,8 -2,4 -4,8 -5,12l4 1 13 -6 2 -12c0,-1 -1,-2 -2,-3zm102 3l-11 7 -10 8 -13 4 7 5 4 2 9 -3c3,-2 5,-5 8,-8 4,-1 8,-3 12,-5l0 -10 -6 0zm256 7l1 7 10 -1 0 -6 -11 0zm43 5c1,2 2,3 4,4 0,-2 -1,-3 -4,-4zm-365 2c-4,1 -7,3 -10,6l-1 7 4 2c3,0 6,-1 9,-4l-2 -11zm304 4c-2,3 -2,7 -2,11 3,2 6,2 10,2 1,-3 2,-6 2,-10l-10 -3zm-412 4c5,1 9,4 14,8l5 15 1 16 -1 3 0 17 -1 3c-3,-3 -5,-6 -7,-11l-10 -31 -1 -20zm88 5l0 11 -11 1c-4,-2 -8,-5 -12,-9l-7 -1 -2 25 3 3 13 -6 8 -2c2,3 3,4 6,5l7 -27 -5 0zm99 1c-5,1 -8,3 -10,8 2,4 5,6 10,6 4,0 8,-3 10,-7 -3,-3 -6,-5 -10,-7zm278 0l-9 14 -8 15 -4 17 -1 13 7 -1 12 -33 10 -11c0,-5 -3,-10 -7,-14zm-308 7l-10 12 -3 7 8 -1 4 0 0 -1 8 1 0 -18 -7 0zm70 10l10 0 -2 5 -2 2 -6 -2 0 -5zm53 12l0 11 9 0 0 -1 1 -9 -10 -1zm-198 10c-4,1 -7,3 -10,6 -1,3 -3,6 -3,9 3,2 7,4 10,5 3,2 5,4 7,8l1 14 -15 0 -1 12 1 13c4,1 8,1 13,2l11 -2 -1 -39 -5 -23c-2,-2 -5,-4 -8,-5zm324 0l-1 15c2,3 5,5 8,6l1 -15c-2,-2 -5,-5 -8,-6zm-196 1c-2,4 -3,8 -4,13l3 1 13 -3 -1 -7c-3,-2 -6,-4 -11,-4zm-98 2l1 11 5 0c0,-5 -2,-8 -6,-11zm121 3c0,3 1,5 3,6 0,-2 -1,-4 -3,-6zm6 17c1,3 4,7 7,9 -1,-3 -4,-6 -7,-9zm-193 4c0,2 1,4 3,5 0,-2 -1,-4 -3,-5zm99 2l-19 8c1,3 1,6 2,9l19 -11 0 -5 -2 -1zm63 0l1 3 1 -3 -2 0zm200 4c-3,4 -5,7 -8,12l-1 11 3 16 -4 7 4 7 5 3c1,-1 2,-4 3,-7l1 -16 -3 -33zm-298 12c1,2 4,4 7,4 -2,-2 -4,-3 -7,-4zm103 0l-16 5c-4,2 -9,4 -13,6l-14 6 -35 26c-4,3 -7,6 -10,10 3,3 7,6 12,6l2 6c3,0 5,-1 8,-3 -1,-3 -2,-6 -3,-10l4 -2 15 -6c4,-1 7,-4 11,-8 3,-3 6,-6 11,-10l12 -7c4,-3 8,-5 12,-9 2,-3 3,-6 4,-10zm31 3l-1 17 5 0 0 -12c-1,-2 -2,-3 -4,-5zm-159 3l2 4 -7 2 5 -6zm338 3c1,3 3,5 7,6 0,-3 -2,-5 -7,-6zm-315 27c1,3 4,5 8,7 -1,-4 -4,-6 -8,-7zm135 1l0 12 7 -1 0 -11 -7 0zm-43 24c-3,2 -7,4 -10,6l-1 5 3 2 5 -1c4,-1 7,-3 11,-6 -1,-3 -3,-5 -8,-6zm125 0l-2 3 2 8 7 -1 3 -9 -10 -1zm-80 22c0,3 1,5 3,7l-3 -7z"/>
  </g>
  <path class="fil1" d="M810 3874l0 -4c0,-4 -1,-7 -2,-10 -1,-3 -4,-6 -7,-9 -3,-3 -7,-5 -12,-7 -5,-1 -12,-2 -19,-2 -16,0 -26,3 -32,9 -5,7 -8,14 -8,23l0 113c0,12 3,20 9,26 5,6 16,9 31,9 15,0 26,-3 31,-9 6,-6 9,-15 9,-26l39 0 0 13c0,6 -1,12 -3,19 -2,6 -6,13 -12,18 -6,6 -14,10 -24,14 -11,4 -24,6 -40,6 -17,0 -30,-2 -40,-6 -10,-4 -18,-8 -24,-14 -6,-5 -10,-12 -12,-18 -2,-7 -3,-13 -3,-19l0 -21 0 -105 0 -11c0,-8 1,-15 4,-22 3,-7 8,-12 14,-18 7,-5 15,-9 25,-12 10,-3 22,-4 36,-4 27,0 47,5 60,16 12,11 19,24 19,40l0 11 -39 0zm520 119l0 7c0,4 0,9 -2,15 -1,6 -4,13 -9,19 -6,6 -14,11 -24,16 -11,4 -25,7 -44,7 -18,0 -33,-3 -43,-7 -11,-5 -19,-10 -24,-16 -5,-6 -8,-13 -10,-19 -1,-6 -2,-11 -2,-15l0 -5 0 -132c0,-3 1,-8 2,-15 2,-6 5,-12 10,-18 5,-7 13,-12 24,-16 10,-5 25,-7 43,-7 19,0 33,2 44,7 10,4 18,9 24,16 5,6 8,12 9,18 2,6 2,11 2,15l0 130zm-39 -5l0 -113 0 -5c0,-3 -1,-6 -2,-9 -1,-3 -2,-6 -5,-9 -3,-3 -7,-5 -13,-7 -5,-2 -12,-3 -21,-3 -8,0 -15,1 -20,3 -5,2 -9,4 -12,7 -3,3 -5,6 -5,10 -1,3 -2,6 -2,9l0 4 0 113 0 5c0,2 1,5 2,9 0,3 2,6 5,9 3,3 7,6 12,8 5,2 12,3 20,3 9,0 16,-1 21,-3 6,-2 10,-5 13,-7 3,-3 4,-6 5,-9 1,-4 2,-7 2,-10l0 -5zm640 65l-40 0 0 -178 0 -4c0,-3 0,-6 -1,-10 -1,-3 -2,-6 -5,-9 -3,-3 -7,-5 -12,-7 -5,-2 -12,-3 -20,-3 -9,0 -16,1 -21,3 -6,2 -10,4 -13,7 -3,3 -5,6 -6,9 -1,3 -1,6 -1,9l0 5 0 178 -40 0 0 -178 0 -4c0,-3 0,-6 -1,-10 -1,-3 -2,-6 -5,-9 -3,-3 -6,-5 -11,-7 -6,-2 -12,-3 -21,-3 -9,0 -16,1 -21,3 -6,2 -10,4 -13,7 -3,3 -5,6 -6,9 -1,3 -1,6 -1,9l0 5 0 178 -39 0 0 -182 0 -8c0,-4 1,-9 2,-15 1,-6 4,-12 10,-18 5,-7 13,-12 23,-16 11,-5 25,-7 44,-7 15,0 27,1 36,4 10,3 17,7 23,11 6,-4 14,-8 23,-11 10,-3 22,-4 37,-4 18,0 33,2 43,7 11,4 19,9 24,16 5,6 8,12 10,18 1,7 2,12 2,15l0 5 0 185zm600 0l-39 0 0 -178 0 -4c0,-3 -1,-6 -2,-10 0,-3 -2,-6 -5,-9 -2,-3 -6,-5 -11,-7 -5,-2 -12,-3 -21,-3 -9,0 -16,1 -21,3 -6,2 -10,4 -13,7 -3,3 -4,6 -5,9 -1,3 -2,6 -2,9l0 5 0 178 -39 0 0 -178 0 -4c0,-3 -1,-6 -1,-10 -1,-3 -3,-6 -6,-9 -2,-3 -6,-5 -11,-7 -5,-2 -12,-3 -21,-3 -8,0 -15,1 -21,3 -5,2 -9,4 -12,7 -3,3 -5,6 -6,9 -1,3 -2,6 -2,9l0 5 0 178 -39 0 0 -182 0 -8c0,-4 1,-9 2,-15 2,-6 5,-12 10,-18 5,-7 13,-12 24,-16 10,-5 25,-7 43,-7 15,0 27,1 37,4 9,3 17,7 23,11 6,-4 13,-8 23,-11 9,-3 21,-4 36,-4 19,0 33,2 44,7 10,4 18,9 23,16 6,6 9,12 10,18 1,7 2,12 2,15l0 5 0 185zm482 -61l0 8c0,4 -1,9 -2,15 -2,6 -5,12 -10,18 -5,7 -13,12 -24,16 -10,5 -25,7 -43,7 -19,0 -33,-2 -44,-7 -10,-4 -18,-9 -24,-16 -5,-6 -8,-12 -9,-18 -2,-7 -2,-12 -2,-15l0 -5 0 -185 39 0 0 178 0 0 0 5c0,2 1,5 1,8 1,4 3,7 6,10 2,3 6,5 11,7 5,2 12,3 21,3 9,0 16,-1 21,-3 5,-2 9,-4 12,-7 3,-3 5,-6 6,-9 1,-3 1,-6 1,-9l0 -5 1 0 0 -178 39 0 0 182zm482 61l-40 0 0 -178 0 -4c0,-3 0,-6 -1,-10 -1,-3 -3,-6 -5,-9 -3,-3 -7,-5 -12,-7 -5,-2 -12,-3 -20,-3 -9,0 -16,1 -21,3 -6,2 -10,4 -13,7 -3,3 -5,6 -6,9 -1,3 -1,6 -1,9l0 5 0 178 -40 0 0 -182 0 -8c0,-4 1,-9 2,-15 2,-6 5,-12 10,-18 6,-7 14,-12 24,-16 11,-5 25,-7 44,-7 18,0 33,2 43,7 11,4 19,9 24,16 5,6 9,12 10,18 1,7 2,12 2,15l0 5 0 185zm329 0l0 -242 39 0 0 242 -39 0zm0 -336l39 0 0 47 -39 0 0 -47zm472 301l0 35c-19,0 -33,-2 -44,-7 -10,-4 -18,-10 -24,-16 -5,-6 -8,-12 -10,-19 -1,-6 -1,-11 -1,-14l0 -9 0 -148 -30 0 0 -33 30 0 0 -62 39 0 0 62 40 0 0 33 -40 0 0 145 0 4c0,3 0,6 1,9 1,3 3,6 6,9 2,3 6,6 11,8 5,2 12,3 21,3l1 0zm469 71l0 0 0 7c0,3 -1,8 -2,14 -2,7 -5,13 -10,19 -5,6 -13,11 -24,16 -10,4 -25,7 -43,7 -19,0 -33,-3 -44,-7 -10,-5 -18,-10 -24,-16 -5,-6 -8,-13 -9,-19 -2,-6 -2,-11 -2,-14l0 -13 39 0 0 5c0,2 1,5 1,9 1,3 3,6 6,9 3,3 6,6 12,8 5,2 11,3 20,3 9,0 16,-1 21,-3 5,-2 9,-5 12,-7 3,-3 5,-6 6,-9 1,-4 2,-7 2,-9l0 -1 0 -8c0,-4 -1,-7 -3,-10 -1,-3 -3,-5 -4,-7 -2,-3 -4,-4 -6,-5 -2,-1 -4,-2 -5,-3 -1,0 -4,-1 -9,-3 -5,-2 -11,-4 -18,-6 -6,-3 -13,-5 -20,-8 -7,-2 -14,-4 -19,-6 -12,-4 -20,-11 -26,-20 -6,-10 -9,-21 -9,-32l0 -11 0 -158 39 0 0 158 0 2c0,6 1,11 4,15 2,4 5,7 7,9 4,3 7,5 11,7 5,2 10,4 16,5 4,2 9,4 15,6 5,2 10,4 15,5 2,1 5,2 7,3 2,2 4,4 5,8l0 -58 0 -2 0 -158 39 0 0 278z"/>
  <rect class="fil2" x="4842" y="2657" width="533" height="145"/>
  <polygon class="fil3" points="2191,0 4127,0 4127,2653 1475,2653 1460,732 "/>
  <g>
   <path class="fil4" d="M2669 1844c-59,-196 -32,-991 -32,-1291 0,-149 3,-274 145,-302 136,-28 215,74 217,199l-1 893c0,116 -34,337 44,403 31,32 47,20 96,19 49,-17 47,-8 66,-51 65,-149 -91,-603 139,-673 133,-41 234,41 235,221 0,150 3,304 -1,454l-9 45c-38,257 -358,454 -635,339 -164,-68 -153,-126 -204,-149l-54 -99c0,-1 -1,-3 -3,-4l-3 -4zm-20 110c7,24 -2,4 14,26 5,6 18,19 23,24 17,17 25,26 38,41 187,215 579,233 818,-53 9,-35 2,-21 21,-36 104,-188 88,-258 88,-499 0,-195 25,-371 -119,-459 -163,-99 -338,2 -378,141 -39,137 21,457 -22,560l-48 -1c-64,-157 43,-1233 -46,-1396 -55,-100 -193,-168 -330,-103 -130,62 -144,164 -144,342 0,161 0,321 0,481 0,135 -9,332 -4,514 5,153 20,296 61,382 10,25 -1,5 13,23 1,2 6,9 7,7 1,-2 5,4 8,6zm21 -109l-1 -1 1 1zm328 734c-1,12 -1,46 1,57l16 41 46 -1c22,-46 11,-372 6,-400l-67 -6 -2 309zm-139 98l67 0 -2 -428 -70 -23 5 451zm-378 -842l-70 -30 -35 -48c-8,-10 -7,-5 -15,-23 -3,-6 -8,-24 -10,-30 -16,-131 44,-360 -78,-398 -177,-55 -145,190 -143,311 0,87 -5,147 33,211 107,180 232,253 464,224 -47,-108 -73,-37 -189,-74 -154,-50 -236,-175 -236,-338 1,-80 -15,-197 12,-263l48 0c45,102 -21,277 26,382 51,110 138,158 257,156 -27,-85 -6,-48 -64,-80zm-493 -126c7,101 65,201 103,281 66,28 65,187 470,218 18,129 -19,408 19,469l53 -20c13,-58 -2,-368 6,-459l69 -19 5 498 69 -2 -1 -485c-15,-19 -79,-69 -93,-73 -53,-16 -184,70 -391,-45 -138,-76 -232,-229 -239,-398 -8,-190 -34,-454 190,-446 83,3 155,72 168,152 8,44 9,268 3,314 19,31 32,52 61,67 39,-5 16,-45 12,-76 -18,-131 76,-486 -210,-526 -138,-20 -236,57 -276,147 -38,86 -23,296 -18,403zm794 -1179c0,-72 -23,-147 56,-132 51,77 -16,1186 25,1327 25,87 21,75 84,132 135,121 336,42 396,-86 26,-57 18,-205 18,-280 0,-199 -35,-326 67,-306 9,153 23,510 -25,614 -21,44 -93,121 -108,132 -85,64 -232,71 -332,24 -35,-16 -108,-76 -129,-110 -34,-54 -52,-122 -52,-193l0 -1122zm684 1302c44,-97 12,-39 34,-109 1,-3 3,-7 5,-10 1,-141 1,-285 2,-428 1,-259 -165,-181 -196,-138 -65,88 15,491 -41,600 -39,76 -188,137 -244,74 -137,-63 -99,-270 -99,-456l0 -858c0,-95 1,-184 -106,-187 -104,-3 -113,81 -113,176 1,171 -12,1178 12,1258 8,26 29,90 39,108 16,28 41,51 63,74 79,81 169,133 308,126 132,-7 208,-65 280,-141 33,-36 33,-46 56,-89z"/>
  </g>
  <polygon class="fil2" points="1475,0 2093,0 1475,618 "/>
 </g>
</svg>
